<svg xmlns="http://www.w3.org/2000/svg" xmlns:xlink="http://www.w3.org/1999/xlink" aria-hidden="true"><symbol id="icon-add-to-cart" viewbox="0 0 20 22">
  <path d="m 13.833008,0.57324225 c -0.5523,0 -1,0.44771895 -1,0.99999995 l 0,3.6152344 -3.4746098,0 c -0.56644,0 -1.0253906,0.4589406 -1.0253906,1.0253906 0,0.56644 0.4589507,1.0253906 1.0253906,1.0253906 l 3.4746098,0 0,3.6152352 c 0,0.5523 0.4477,1 1,1 0.5523,0 1,-0.4477 1,-1 l 0,-3.6152352 3.474609,0 c 0.5664,0 1.025391,-0.4589406 1.025391,-1.0253906 0,-0.56645 -0.458991,-1.0253906 -1.025391,-1.0253906 l -3.474609,0 0,-3.6152344 c 0,-0.552281 -0.4477,-0.99999995 -1,-0.99999995 z M 0.666992,6.3857422 l 0,1.7089845 1.6660156,0 3,6.4863283 -0.7421875,1.376953 1.9003907,0 0.091797,-0.171875 6.2089842,0 c 0.625,0 1.175684,-0.349006 1.458984,-0.878906 l 0.53711,-1 -1.904297,0 -0.0918,0.169922 -5.8496092,0 -1.9746094,-4.2734381 2.8652344,0 0,-1.7089843 -3.6582031,0 -0.7832031,-1.7089844 -2.7246094,0 z m 6,11.6230468 c -0.91667,0 -1.6582031,0.768885 -1.6582031,1.708985 0,0.9402 0.7415331,1.708984 1.6582031,1.708984 0.91667,0 1.6660156,-0.768784 1.6660156,-1.708984 0,-0.9401 -0.7493456,-1.708985 -1.6660156,-1.708985 z m 7.333984,0 c -0.9167,0 -1.658203,0.768885 -1.658203,1.708985 0,0.9402 0.741503,1.708984 1.658203,1.708984 0.9166,0 1.666016,-0.768784 1.666016,-1.708984 0,-0.9401 -0.749416,-1.708985 -1.666016,-1.708985 z"/>
</symbol><symbol id="icon-added-to-cart" viewbox="0 0 20 22">
  <path d="m 18.789513,1.2119172 c -0.2681,0 -0.535928,0.1039281 -0.736328,0.3144531 l -4.851563,5.0957035 c -0.0843,0.0886 -0.225293,0.08765 -0.308592,-0.002 l -1.552735,-1.667969 c -0.3957,-0.4254 -1.065403,-0.431825 -1.4707035,-0.01563 -0.3781,0.3882 -0.386678,1.00369 -0.01758,1.40039 l 3.0410165,3.267578 c 0.0746,0.0802 0.201744,0.08135 0.277343,0.002 l 6.355468,-6.677735 c 0.3738,-0.3927098 0.3738,-1.0096535 0,-1.4023435 C 19.32544,1.3158393 19.057611,1.2119112 18.789511,1.2119112 Z m -18.5957025,4.5332036 0,1.708984 1.6660156,0 3.0000004,6.4863282 -0.742188,1.376953 1.900391,0 0.0918,-0.171875 6.2089835,0 c 0.625,0 1.175684,-0.348906 1.458984,-0.878906 l 0.53711,-1 -1.904297,0 -0.0918,0.169922 -5.8496085,0 -1.97461,-4.2734382 2.865235,0 0,-1.708984 -3.658204,0 -0.783203,-1.708984 -2.724609,0 z m 6,11.6230462 c -0.9166,0 -1.658203,0.768785 -1.658203,1.708985 0,0.9402 0.741603,1.710937 1.658203,1.710937 0.9167,0 1.666016,-0.770737 1.666016,-1.710937 0,-0.9402 -0.749316,-1.708985 -1.666016,-1.708985 z m 7.3339835,0 c -0.916699,0 -1.658203,0.768785 -1.658203,1.708985 0,0.9402 0.741504,1.710937 1.658203,1.710937 0.9166,0 1.666016,-0.770737 1.666016,-1.710937 0,-0.9402 -0.749416,-1.708985 -1.666016,-1.708985 z"/>
</symbol><symbol id="icon-arrow-down" viewbox="0 0 12 12">
  <path d="M 1.53125,3.46875 0.46875,4.53125 6,10.060547 11.53125,4.53125 10.46875,3.46875 6,7.9375 1.53125,3.46875 Z"/>
</symbol><symbol id="icon-arrow-left" viewbox="0 0 12 12">
  <path d="M 7.46875 0.46875 L 1.9394531 6 L 7.46875 11.53125 L 8.53125 10.46875 L 4.0625 6 L 8.53125 1.53125 L 7.46875 0.46875 z "/>
</symbol><symbol id="icon-arrow-right" viewbox="0 0 12 12">
  <path d="M 4.53125,0.46875 3.46875,1.53125 7.9375,6 3.46875,10.46875 4.53125,11.53125 10.060547,6 4.53125,0.46875 Z"/>
</symbol><symbol id="icon-filters-mobile" viewbox="0 0 16 9">
<path fill-rule="evenodd" clip-rule="evenodd" d="M7.33966 6.39997C7.32184 6.51403 7.3126 6.63092 7.3126 6.74997C7.3126 7.05074 7.37161 7.33772 7.47869 7.59997L0.750097 7.59997C0.418726 7.59997 0.150097 7.33135 0.150097 6.99997C0.150097 6.6686 0.418726 6.39997 0.750097 6.39997L7.33966 6.39997ZM11.7855 6.39998L14.7501 6.39998C15.0815 6.39998 15.3501 6.6686 15.3501 6.99998C15.3501 7.33135 15.0815 7.59998 14.7501 7.59998L11.6465 7.59998C11.7536 7.33772 11.8126 7.05074 11.8126 6.74998C11.8126 6.63092 11.8034 6.51403 11.7855 6.39998Z" fill="black"/>
<path fill-rule="evenodd" clip-rule="evenodd" d="M8.16034 2.60003C8.17816 2.48597 8.1874 2.36908 8.1874 2.25003C8.1874 1.94926 8.12839 1.66228 8.02131 1.40003L14.7499 1.40003C15.0813 1.40003 15.3499 1.66866 15.3499 2.00003C15.3499 2.3314 15.0813 2.60003 14.7499 2.60003L8.16034 2.60003ZM3.71446 2.60003L0.749902 2.60002C0.418531 2.60002 0.149902 2.3314 0.149902 2.00002C0.149902 1.66865 0.418532 1.40002 0.749902 1.40002L3.85349 1.40003C3.74642 1.66228 3.6874 1.94926 3.6874 2.25002C3.6874 2.36908 3.69665 2.48597 3.71446 2.60003Z" fill="black"/>
<circle cx="9.5625" cy="6.75" r="1.65" transform="rotate(-180 9.5625 6.75)" stroke="black" stroke-width="1.2"/>
<circle cx="5.9375" cy="2.25" r="1.65" stroke="black" stroke-width="1.2"/>
</symbol><symbol id="icon-heart" viewbox="0 0 13 12">
<path d="M9.15582 0.75C8.01255 0.75 7.03564 1.5661 6.49891 2.12873C5.96218 1.5661 4.98745 0.75 3.84473 0.75C1.87509 0.75 0.5 2.12491 0.5 4.09304C0.5 6.26165 2.20782 7.66333 3.86 9.01912C4.64 9.65987 5.44727 10.3219 6.06636 11.0561C6.17055 11.179 6.32327 11.25 6.48364 11.25H6.51527C6.67618 11.25 6.82836 11.1784 6.932 11.0561C7.55218 10.3219 8.35891 9.65932 9.13945 9.01912C10.7911 7.66387 12.5 6.2622 12.5 4.09304C12.5 2.12491 11.1249 0.75 9.15582 0.75Z"/>
</symbol><symbol id="icon-list" viewbox="0 0 20 20">
  <path d="M 4 5 A 1.0001 1.0001 0 1 0 4 7 L 5 7 A 1.0001 1.0001 0 1 0 5 5 L 4 5 z M 8 5 L 8 7 L 16 7 L 16 5 L 8 5 z M 4 9 A 1.0001 1.0001 0 1 0 4 11 L 5 11 A 1.0001 1.0001 0 1 0 5 9 L 4 9 z M 8 9 L 8 11 L 16 11 L 16 9 L 8 9 z M 4 13 A 1.0001 1.0001 0 1 0 4 15 L 5 15 A 1.0001 1.0001 0 1 0 5 13 L 4 13 z M 8 13 L 8 15 L 16 15 L 16 13 L 8 13 z "/>
</symbol></svg>