<?xml version="1.0" standalone="no"?>
<!DOCTYPE svg PUBLIC "-//W3C//DTD SVG 20010904//EN"
 "http://www.w3.org/TR/2001/REC-SVG-20010904/DTD/svg10.dtd">
<svg version="1.0" xmlns="http://www.w3.org/2000/svg"
 width="180.000000pt" height="180.000000pt" viewBox="0 0 180.000000 180.000000"
 preserveAspectRatio="xMidYMid meet">
<metadata>
Created by potrace 1.14, written by Peter Selinger 2001-2017
</metadata>
<g transform="translate(0.000000,180.000000) scale(0.100000,-0.100000)"
fill="#000000" stroke="none">
<path d="M354 1347 c-2 -7 -3 -98 -2 -202 l3 -190 43 -3 42 -3 0 132 c0 73 2
130 5 128 2 -3 24 -61 48 -129 l43 -125 35 -3 34 -3 45 131 c25 71 48 130 53
130 4 0 7 -58 7 -130 l0 -130 40 0 40 0 -2 203 -3 202 -60 0 -60 0 -43 -134
c-24 -73 -47 -129 -52 -125 -4 5 -26 66 -50 137 l-42 127 -59 0 c-39 0 -61 -4
-65 -13z"/>
<path d="M870 1155 l0 -206 43 3 42 3 0 200 0 200 -42 3 -43 3 0 -206z"/>
<path d="M1185 1346 c-16 -7 -45 -28 -63 -47 -97 -100 -47 -273 90 -309 135
-37 265 93 229 228 -30 109 -156 172 -256 128z m128 -40 c108 -46 120 -197 21
-263 -37 -24 -117 -22 -151 3 -70 52 -88 117 -53 189 35 73 110 102 183 71z"/>
<path d="M1184 1257 c-3 -8 -4 -52 -2 -98 3 -78 4 -84 26 -87 19 -3 22 1 22
27 0 24 4 31 20 31 11 0 20 -4 20 -10 0 -15 38 -50 55 -50 27 0 30 31 4 51
-22 17 -23 18 -6 37 25 28 21 67 -9 91 -31 25 -121 30 -130 8z m106 -57 c0
-16 -7 -20 -30 -20 -23 0 -30 4 -30 20 0 16 7 20 30 20 23 0 30 -4 30 -20z"/>
<path d="M350 650 l0 -200 145 0 145 0 0 35 0 34 -97 3 -98 3 -3 163 -2 162
-45 0 -45 0 0 -200z"/>
<path d="M790 828 c-15 -35 -140 -369 -140 -374 0 -2 20 -4 44 -4 43 0 45 1
58 43 l15 42 75 3 76 3 14 -43 c14 -42 16 -43 61 -46 l47 -3 -30 83 c-17 46
-49 135 -73 198 l-42 115 -48 3 c-41 3 -48 0 -57 -20z m95 -190 c7 -28 7 -28
-44 -28 l-51 0 19 48 c10 26 21 56 26 67 7 18 10 15 25 -20 10 -22 22 -52 25
-67z"/>
<path d="M1080 651 l0 -201 115 0 c167 0 215 26 215 118 0 35 -6 49 -31 74
l-30 31 20 21 c27 29 28 95 2 127 -18 23 -26 24 -155 27 l-136 4 0 -201z m200
126 c14 -7 26 -22 28 -34 5 -35 -23 -53 -84 -53 l-54 0 0 50 0 50 43 0 c23 0
53 -6 67 -13z m21 -157 c22 -12 27 -68 7 -88 -7 -7 -39 -12 -75 -12 l-63 0 0
55 0 55 56 0 c30 0 64 -5 75 -10z"/>
</g>
</svg>
