<svg width="673" height="601" viewBox="0 0 673 601" fill="none" xmlns="http://www.w3.org/2000/svg">
<path d="M360.057 599.305L314.133 599.305" stroke="#0F0E12" stroke-width="1.5"/>
<path d="M337.199 570.814V598.61" stroke="#0F0E12" stroke-width="1.5"/>
<rect x="1" y="167.775" width="671" height="403.039" stroke="#0F0E12" stroke-width="1.5"/>
<path d="M1.51775 460.326H672" stroke="#0F0E12" stroke-width="1.5"/>
<path d="M337.199 1.75124V167.775" stroke="#0F0E12" stroke-width="1.5"/>
<path d="M360.057 1.6949L314.133 1.6949" stroke="#0F0E12" stroke-width="1.5"/>
<circle r="26.5713" transform="matrix(0.709165 0.705043 -0.709165 0.705043 105.788 130.343)" fill="#69C7DC"/>
<circle r="26.5713" transform="matrix(0.709165 0.705043 -0.709165 0.705043 105.788 130.343)" fill="url(#paint0_radial)" fill-opacity="0.8"/>
<circle r="26.5713" transform="matrix(0.709165 0.705043 -0.709165 0.705043 105.788 130.343)" fill="url(#paint1_radial)"/>
<circle r="26.5713" transform="matrix(0.709165 0.705043 -0.709165 0.705043 105.788 130.343)" fill="url(#paint2_radial)"/>
<circle r="26.5713" transform="matrix(0.709165 0.705043 -0.709165 0.705043 534.216 463.893)" fill="#69C7DC"/>
<circle r="26.5713" transform="matrix(0.709165 0.705043 -0.709165 0.705043 534.216 463.893)" fill="url(#paint3_radial)" fill-opacity="0.8"/>
<circle r="26.5713" transform="matrix(0.709165 0.705043 -0.709165 0.705043 534.216 463.893)" fill="url(#paint4_radial)"/>
<circle r="26.5713" transform="matrix(0.709165 0.705043 -0.709165 0.705043 534.216 463.893)" fill="url(#paint5_radial)"/>
<circle r="26.5713" transform="matrix(0.709165 0.705043 -0.709165 0.705043 460.42 106.568)" fill="#E9BC93"/>
<circle r="26.5713" transform="matrix(0.709165 0.705043 -0.709165 0.705043 460.42 106.568)" fill="url(#paint6_radial)" fill-opacity="0.7"/>
<circle r="26.5713" transform="matrix(0.709165 0.705043 -0.709165 0.705043 460.42 106.568)" fill="url(#paint7_radial)"/>
<circle r="26.5713" transform="matrix(0.709165 0.705043 -0.709165 0.705043 460.42 106.568)" fill="url(#paint8_radial)"/>
<circle r="26.5713" transform="matrix(0.709165 0.705043 -0.709165 0.705043 401.656 398.677)" fill="#E9BC93"/>
<circle r="26.5713" transform="matrix(0.709165 0.705043 -0.709165 0.705043 401.656 398.677)" fill="url(#paint9_radial)" fill-opacity="0.7"/>
<circle r="26.5713" transform="matrix(0.709165 0.705043 -0.709165 0.705043 401.656 398.677)" fill="url(#paint10_radial)"/>
<circle r="26.5713" transform="matrix(0.709165 0.705043 -0.709165 0.705043 401.656 398.677)" fill="url(#paint11_radial)"/>
<circle r="26.5713" transform="matrix(0.709165 0.705043 -0.709165 0.705043 245.865 261.453)" fill="#E9BC93"/>
<circle r="26.5713" transform="matrix(0.709165 0.705043 -0.709165 0.705043 245.865 261.453)" fill="url(#paint12_radial)" fill-opacity="0.7"/>
<circle r="26.5713" transform="matrix(0.709165 0.705043 -0.709165 0.705043 245.865 261.453)" fill="url(#paint13_radial)"/>
<circle r="26.5713" transform="matrix(0.709165 0.705043 -0.709165 0.705043 245.865 261.453)" fill="url(#paint14_radial)"/>
<circle r="26.5713" transform="matrix(0.709165 0.705043 -0.709165 0.705043 315.562 507.37)" fill="#E9BC93"/>
<circle r="26.5713" transform="matrix(0.709165 0.705043 -0.709165 0.705043 315.562 507.37)" fill="url(#paint15_radial)" fill-opacity="0.7"/>
<circle r="26.5713" transform="matrix(0.709165 0.705043 -0.709165 0.705043 315.562 507.37)" fill="url(#paint16_radial)"/>
<circle r="26.5713" transform="matrix(0.709165 0.705043 -0.709165 0.705043 315.562 507.37)" fill="url(#paint17_radial)"/>
<circle r="26.5713" transform="matrix(0.709165 0.705043 -0.709165 0.705043 125.604 298.816)" fill="#E9BC93"/>
<circle r="26.5713" transform="matrix(0.709165 0.705043 -0.709165 0.705043 125.604 298.816)" fill="url(#paint18_radial)" fill-opacity="0.7"/>
<circle r="26.5713" transform="matrix(0.709165 0.705043 -0.709165 0.705043 125.604 298.816)" fill="url(#paint19_radial)"/>
<circle r="26.5713" transform="matrix(0.709165 0.705043 -0.709165 0.705043 125.604 298.816)" fill="url(#paint20_radial)"/>
<circle r="26.5713" transform="matrix(0.709165 0.705043 0.709165 -0.705043 142.003 501.256)" fill="#E8A4B4"/>
<circle r="26.5713" transform="matrix(0.709165 0.705043 0.709165 -0.705043 142.003 501.256)" fill="url(#paint21_radial)" fill-opacity="0.9"/>
<circle r="26.5713" transform="matrix(0.709165 0.705043 0.709165 -0.705043 142.003 501.256)" fill="url(#paint22_radial)"/>
<circle r="26.5713" transform="matrix(0.709165 0.705043 0.709165 -0.705043 142.003 501.256)" fill="url(#paint23_radial)"/>
<circle r="26.5713" transform="matrix(0.709165 0.705043 0.709165 -0.705043 595.713 181.293)" fill="#E8A4B4"/>
<circle r="26.5713" transform="matrix(0.709165 0.705043 0.709165 -0.705043 595.713 181.293)" fill="url(#paint24_radial)" fill-opacity="0.9"/>
<circle r="26.5713" transform="matrix(0.709165 0.705043 0.709165 -0.705043 595.713 181.293)" fill="url(#paint25_radial)"/>
<circle r="26.5713" transform="matrix(0.709165 0.705043 0.709165 -0.705043 595.713 181.293)" fill="url(#paint26_radial)"/>
<circle r="26.5713" transform="matrix(0.709165 0.705043 0.709165 -0.705043 457.004 261.454)" fill="#E8A4B4"/>
<circle r="26.5713" transform="matrix(0.709165 0.705043 0.709165 -0.705043 457.004 261.454)" fill="url(#paint27_radial)" fill-opacity="0.9"/>
<circle r="26.5713" transform="matrix(0.709165 0.705043 0.709165 -0.705043 457.004 261.454)" fill="url(#paint28_radial)"/>
<circle r="26.5713" transform="matrix(0.709165 0.705043 0.709165 -0.705043 457.004 261.454)" fill="url(#paint29_radial)"/>
<circle r="26.5713" transform="matrix(0.709165 0.705043 0.709165 -0.705043 257.481 118.796)" fill="#E8A4B4"/>
<circle r="26.5713" transform="matrix(0.709165 0.705043 0.709165 -0.705043 257.481 118.796)" fill="url(#paint30_radial)" fill-opacity="0.9"/>
<circle r="26.5713" transform="matrix(0.709165 0.705043 0.709165 -0.705043 257.481 118.796)" fill="url(#paint31_radial)"/>
<circle r="26.5713" transform="matrix(0.709165 0.705043 0.709165 -0.705043 257.481 118.796)" fill="url(#paint32_radial)"/>
<defs>
<radialGradient id="paint0_radial" cx="0" cy="0" r="1" gradientUnits="userSpaceOnUse" gradientTransform="translate(7.59179 26.5713) scale(37.01 41.9018)">
<stop stop-color="white"/>
<stop offset="1" stop-color="white" stop-opacity="0"/>
</radialGradient>
<radialGradient id="paint1_radial" cx="0" cy="0" r="1" gradientUnits="userSpaceOnUse" gradientTransform="translate(5.69384 26.5713) scale(47.4487)">
<stop offset="0.681973" stop-color="#0F0E12" stop-opacity="0"/>
<stop offset="1" stop-color="#0F0E12" stop-opacity="0.19"/>
</radialGradient>
<radialGradient id="paint2_radial" cx="0" cy="0" r="1" gradientUnits="userSpaceOnUse" gradientTransform="translate(13.2856 26.5713) scale(134.754)">
<stop stop-color="#0F0E12" stop-opacity="0"/>
<stop offset="1" stop-color="#0F0E12"/>
</radialGradient>
<radialGradient id="paint3_radial" cx="0" cy="0" r="1" gradientUnits="userSpaceOnUse" gradientTransform="translate(7.59179 26.5713) scale(37.01 41.9018)">
<stop stop-color="white"/>
<stop offset="1" stop-color="white" stop-opacity="0"/>
</radialGradient>
<radialGradient id="paint4_radial" cx="0" cy="0" r="1" gradientUnits="userSpaceOnUse" gradientTransform="translate(5.69384 26.5713) scale(47.4487)">
<stop offset="0.681973" stop-color="#0F0E12" stop-opacity="0"/>
<stop offset="1" stop-color="#0F0E12" stop-opacity="0.19"/>
</radialGradient>
<radialGradient id="paint5_radial" cx="0" cy="0" r="1" gradientUnits="userSpaceOnUse" gradientTransform="translate(13.2856 26.5713) scale(134.754)">
<stop stop-color="#0F0E12" stop-opacity="0"/>
<stop offset="1" stop-color="#0F0E12"/>
</radialGradient>
<radialGradient id="paint6_radial" cx="0" cy="0" r="1" gradientUnits="userSpaceOnUse" gradientTransform="translate(7.59179 26.5713) scale(37.01 41.9018)">
<stop stop-color="white"/>
<stop offset="1" stop-color="white" stop-opacity="0"/>
</radialGradient>
<radialGradient id="paint7_radial" cx="0" cy="0" r="1" gradientUnits="userSpaceOnUse" gradientTransform="translate(-0.617434 46.3792) rotate(-30) scale(85.4076)">
<stop offset="0.474308" stop-color="#0F0E12" stop-opacity="0"/>
<stop offset="1" stop-color="#0F0E12" stop-opacity="0.19"/>
</radialGradient>
<radialGradient id="paint8_radial" cx="0" cy="0" r="1" gradientUnits="userSpaceOnUse" gradientTransform="translate(-0.237247 26.5713) scale(173.662)">
<stop offset="0.168279" stop-color="#0F0E12" stop-opacity="0"/>
<stop offset="1" stop-color="#0F0E12"/>
</radialGradient>
<radialGradient id="paint9_radial" cx="0" cy="0" r="1" gradientUnits="userSpaceOnUse" gradientTransform="translate(7.59179 26.5713) scale(37.01 41.9018)">
<stop stop-color="white"/>
<stop offset="1" stop-color="white" stop-opacity="0"/>
</radialGradient>
<radialGradient id="paint10_radial" cx="0" cy="0" r="1" gradientUnits="userSpaceOnUse" gradientTransform="translate(-0.617434 46.3792) rotate(-30) scale(85.4076)">
<stop offset="0.474308" stop-color="#0F0E12" stop-opacity="0"/>
<stop offset="1" stop-color="#0F0E12" stop-opacity="0.19"/>
</radialGradient>
<radialGradient id="paint11_radial" cx="0" cy="0" r="1" gradientUnits="userSpaceOnUse" gradientTransform="translate(-0.237247 26.5713) scale(173.662)">
<stop offset="0.168279" stop-color="#0F0E12" stop-opacity="0"/>
<stop offset="1" stop-color="#0F0E12"/>
</radialGradient>
<radialGradient id="paint12_radial" cx="0" cy="0" r="1" gradientUnits="userSpaceOnUse" gradientTransform="translate(7.59179 26.5713) scale(37.01 41.9018)">
<stop stop-color="white"/>
<stop offset="1" stop-color="white" stop-opacity="0"/>
</radialGradient>
<radialGradient id="paint13_radial" cx="0" cy="0" r="1" gradientUnits="userSpaceOnUse" gradientTransform="translate(-0.617434 46.3792) rotate(-30) scale(85.4076)">
<stop offset="0.474308" stop-color="#0F0E12" stop-opacity="0"/>
<stop offset="1" stop-color="#0F0E12" stop-opacity="0.19"/>
</radialGradient>
<radialGradient id="paint14_radial" cx="0" cy="0" r="1" gradientUnits="userSpaceOnUse" gradientTransform="translate(-0.237247 26.5713) scale(173.662)">
<stop offset="0.168279" stop-color="#0F0E12" stop-opacity="0"/>
<stop offset="1" stop-color="#0F0E12"/>
</radialGradient>
<radialGradient id="paint15_radial" cx="0" cy="0" r="1" gradientUnits="userSpaceOnUse" gradientTransform="translate(7.59179 26.5713) scale(37.01 41.9018)">
<stop stop-color="white"/>
<stop offset="1" stop-color="white" stop-opacity="0"/>
</radialGradient>
<radialGradient id="paint16_radial" cx="0" cy="0" r="1" gradientUnits="userSpaceOnUse" gradientTransform="translate(-0.617434 46.3792) rotate(-30) scale(85.4076)">
<stop offset="0.474308" stop-color="#0F0E12" stop-opacity="0"/>
<stop offset="1" stop-color="#0F0E12" stop-opacity="0.19"/>
</radialGradient>
<radialGradient id="paint17_radial" cx="0" cy="0" r="1" gradientUnits="userSpaceOnUse" gradientTransform="translate(-0.237247 26.5713) scale(173.662)">
<stop offset="0.168279" stop-color="#0F0E12" stop-opacity="0"/>
<stop offset="1" stop-color="#0F0E12"/>
</radialGradient>
<radialGradient id="paint18_radial" cx="0" cy="0" r="1" gradientUnits="userSpaceOnUse" gradientTransform="translate(7.59179 26.5713) scale(37.01 41.9018)">
<stop stop-color="white"/>
<stop offset="1" stop-color="white" stop-opacity="0"/>
</radialGradient>
<radialGradient id="paint19_radial" cx="0" cy="0" r="1" gradientUnits="userSpaceOnUse" gradientTransform="translate(-0.617434 46.3792) rotate(-30) scale(85.4076)">
<stop offset="0.474308" stop-color="#0F0E12" stop-opacity="0"/>
<stop offset="1" stop-color="#0F0E12" stop-opacity="0.19"/>
</radialGradient>
<radialGradient id="paint20_radial" cx="0" cy="0" r="1" gradientUnits="userSpaceOnUse" gradientTransform="translate(-0.237247 26.5713) scale(173.662)">
<stop offset="0.168279" stop-color="#0F0E12" stop-opacity="0"/>
<stop offset="1" stop-color="#0F0E12"/>
</radialGradient>
<radialGradient id="paint21_radial" cx="0" cy="0" r="1" gradientUnits="userSpaceOnUse" gradientTransform="translate(7.59179 26.5713) scale(37.01 41.9018)">
<stop stop-color="white" stop-opacity="0.9"/>
<stop offset="1" stop-color="white" stop-opacity="0"/>
</radialGradient>
<radialGradient id="paint22_radial" cx="0" cy="0" r="1" gradientUnits="userSpaceOnUse" gradientTransform="translate(5.69384 26.5713) scale(47.4487)">
<stop offset="0.681973" stop-color="#0F0E12" stop-opacity="0"/>
<stop offset="1" stop-color="#0F0E12" stop-opacity="0.19"/>
</radialGradient>
<radialGradient id="paint23_radial" cx="0" cy="0" r="1" gradientUnits="userSpaceOnUse" gradientTransform="translate(13.2856 26.5713) scale(134.754)">
<stop offset="0.0928251" stop-color="#0F0E12" stop-opacity="0"/>
<stop offset="1" stop-color="#0F0E12"/>
</radialGradient>
<radialGradient id="paint24_radial" cx="0" cy="0" r="1" gradientUnits="userSpaceOnUse" gradientTransform="translate(7.59179 26.5713) scale(37.01 41.9018)">
<stop stop-color="white" stop-opacity="0.9"/>
<stop offset="1" stop-color="white" stop-opacity="0"/>
</radialGradient>
<radialGradient id="paint25_radial" cx="0" cy="0" r="1" gradientUnits="userSpaceOnUse" gradientTransform="translate(5.69384 26.5713) scale(47.4487)">
<stop offset="0.681973" stop-color="#0F0E12" stop-opacity="0"/>
<stop offset="1" stop-color="#0F0E12" stop-opacity="0.19"/>
</radialGradient>
<radialGradient id="paint26_radial" cx="0" cy="0" r="1" gradientUnits="userSpaceOnUse" gradientTransform="translate(13.2856 26.5713) scale(134.754)">
<stop offset="0.0928251" stop-color="#0F0E12" stop-opacity="0"/>
<stop offset="1" stop-color="#0F0E12"/>
</radialGradient>
<radialGradient id="paint27_radial" cx="0" cy="0" r="1" gradientUnits="userSpaceOnUse" gradientTransform="translate(7.59179 26.5713) scale(37.01 41.9018)">
<stop stop-color="white" stop-opacity="0.9"/>
<stop offset="1" stop-color="white" stop-opacity="0"/>
</radialGradient>
<radialGradient id="paint28_radial" cx="0" cy="0" r="1" gradientUnits="userSpaceOnUse" gradientTransform="translate(5.69384 26.5713) scale(47.4487)">
<stop offset="0.681973" stop-color="#0F0E12" stop-opacity="0"/>
<stop offset="1" stop-color="#0F0E12" stop-opacity="0.19"/>
</radialGradient>
<radialGradient id="paint29_radial" cx="0" cy="0" r="1" gradientUnits="userSpaceOnUse" gradientTransform="translate(13.2856 26.5713) scale(134.754)">
<stop offset="0.0928251" stop-color="#0F0E12" stop-opacity="0"/>
<stop offset="1" stop-color="#0F0E12"/>
</radialGradient>
<radialGradient id="paint30_radial" cx="0" cy="0" r="1" gradientUnits="userSpaceOnUse" gradientTransform="translate(7.59179 26.5713) scale(37.01 41.9018)">
<stop stop-color="white" stop-opacity="0.9"/>
<stop offset="1" stop-color="white" stop-opacity="0"/>
</radialGradient>
<radialGradient id="paint31_radial" cx="0" cy="0" r="1" gradientUnits="userSpaceOnUse" gradientTransform="translate(5.69384 26.5713) scale(47.4487)">
<stop offset="0.681973" stop-color="#0F0E12" stop-opacity="0"/>
<stop offset="1" stop-color="#0F0E12" stop-opacity="0.19"/>
</radialGradient>
<radialGradient id="paint32_radial" cx="0" cy="0" r="1" gradientUnits="userSpaceOnUse" gradientTransform="translate(13.2856 26.5713) scale(134.754)">
<stop offset="0.0928251" stop-color="#0F0E12" stop-opacity="0"/>
<stop offset="1" stop-color="#0F0E12"/>
</radialGradient>
</defs>
</svg>
