<svg width="261" height="141" viewBox="0 0 261 141" fill="none" xmlns="http://www.w3.org/2000/svg">
<path d="M22.4992 132.499C20.8992 134.499 23.1659 137.999 24.4992 139.499H22L20 137.5L14 132.499L3 123.5L1 118L3 115.5L8.5 108.5L14 106.5L12 102.5L7 98V93.5L8.5 88.5L4 86.5L5.5 83.5V78L4.5 76L4 74L8.5 64.5L14 59.5L21.5 59L24.5 53.5V50L28.5 47V44L33.5 40.5L34 37.5L38.5 36.5L40.5 38L44 40.5L48.5 46L43 48L35.5 45V48L33.5 52.5V55L40 53.5L40.5 52L49 50.5L55 50L56.5 49L60 48L64.5 49L70.5 46L80.5 45L87 50V45L91 35H95L92 41L95 45L91 52L84.5 55L89.5 59.5L96 55L95 52V50L97.5 52.5L103 52L102 49L97.5 48L96 43.5L98.5 35V41H102L100.5 39L104 38L105.5 42.5L108.5 43.5L111.334 40L105.5 38V33L111.334 32L116.5 28.5L124.5 23.5L125.5 19.5L128.5 20.5H133.5L138 24.5L133.5 34L143.5 28.5H150L156 27.5L160.5 28.5L165 33L166.5 30H171.5L174 26.5L173 22L179.5 21.2581L178.5 24.5L184.5 21.2581L191 22L195.5 19.5L203 20.5L210 16.5L214 15.5L218.5 14.5L214 12.5L218.5 10L236.5 4H243.5V2L251 1V4L254 5.5L249.5 7H247L243.5 8.5H240V11L242.5 12.5L240.5 15.5H243.5L247 16.5L249 15.5L252.5 17L249.5 19.5L249 23.5L250 24.5V28.5V31.5H246V36L243.5 34V36.5L242.5 39L246 44H249L250 45L251 46.5L252.5 45.5L254 48L252.5 47L251.5 48L253.5 50L256.5 52L255 52.5V55L256.5 57.5V61L258 63L259 67.5L251 62L244.5 57.5L241 53L239.5 49.5L240 48L239.5 43.5V36L234 31.5H233L234 39L231 36L226.5 41L228 46H233C233 47.3333 232 50 228 50H222.5V53L218.5 54.5L211.5 59.5V69.5L209 78H214L218.5 76.5H224.5L228 83L233 93.5L234 104.5L228 119.5L226.5 122L224.5 117L222.5 111.5L226.5 110L224.5 97.7141L222.5 101H215.5L214 99H204.5L195.5 89.5L186.5 92.5V95L188.5 99L186.5 108H178.5L174 111.5L166.5 113.5L160.5 111.5L156 113.5L151.5 111.5V108H144.5L141 110L144.5 115L137 117V115L131.5 113.5L125.5 117L119.5 122L112 115H108.5H102V110L98.5 104.5L95 106.5L91 104.5L85.5 102.5V99L82 96.5L65.5 99V102.5L61.5 108L63 113.5L50.5 108H47.5V106.5L41 104.5L34 110L29.5 106.5L26.5 113.5L29.5 122L28 126.499C26.8331 125.665 24.0992 124.499 22.4992 126.499C20.4992 128.999 24.4992 129.999 22.4992 132.499Z" stroke="#0F0E12" stroke-width="1.5"/>
<path d="M41.5 79.0088V48.9922" stroke="#7B47B5" stroke-width="1.5"/>
<circle cx="41.0756" cy="40.0628" r="10.5" transform="rotate(36.9649 41.0756 40.0628)" fill="#722DC1"/>
<circle cx="41.0756" cy="40.0628" r="10.5" transform="rotate(36.9649 41.0756 40.0628)" fill="url(#paint0_radial)" fill-opacity="0.7"/>
<circle cx="41.0756" cy="40.0628" r="10.5" transform="rotate(36.9649 41.0756 40.0628)" fill="url(#paint1_radial)"/>
<circle cx="41.0756" cy="40.0628" r="10.5" transform="rotate(36.9649 41.0756 40.0628)" fill="url(#paint2_radial)"/>
<defs>
<radialGradient id="paint0_radial" cx="0" cy="0" r="1" gradientUnits="userSpaceOnUse" gradientTransform="translate(33.5756 40.0628) scale(14.625 16.5581)">
<stop stop-color="white"/>
<stop offset="1" stop-color="white" stop-opacity="0"/>
</radialGradient>
<radialGradient id="paint1_radial" cx="0" cy="0" r="1" gradientUnits="userSpaceOnUse" gradientTransform="translate(31.0517 44.5848) rotate(-25.6305) scale(21.5093 21.4986)">
<stop offset="0.474308" stop-color="#0F0E12" stop-opacity="0"/>
<stop offset="1" stop-color="#0F0E12" stop-opacity="0.19"/>
</radialGradient>
<radialGradient id="paint2_radial" cx="0" cy="0" r="1" gradientUnits="userSpaceOnUse" gradientTransform="translate(30.4819 40.0628) scale(68.625)">
<stop offset="0.168279" stop-color="#0F0E12" stop-opacity="0"/>
<stop offset="1" stop-color="#0F0E12"/>
</radialGradient>
</defs>
</svg>
