<svg width="27" height="23" viewBox="0 0 27 23" fill="none" xmlns="http://www.w3.org/2000/svg">
<path d="M26.0001 11.4788L20.0001 1.47885C19.9045 1.32075 19.7671 1.1922 19.6029 1.10747C19.4387 1.02275 19.2543 0.985147 19.0701 0.998848H7.00009C6.8292 0.999561 6.66134 1.04406 6.51254 1.12809C6.36374 1.21212 6.23895 1.33288 6.15009 1.47885L0.150088 11.4788C0.0623197 11.6309 0.0161133 11.8033 0.0161133 11.9788C0.0161133 12.1544 0.0623197 12.3268 0.150088 12.4788L6.15009 22.4788C6.23394 22.6323 6.35656 22.761 6.50571 22.8523C6.65485 22.9435 6.82531 22.994 7.00009 22.9988H19.0701C19.2427 22.9999 19.4126 22.9562 19.5633 22.8721C19.714 22.788 19.8403 22.6663 19.9301 22.5188L25.9301 12.5188C26.0363 12.3687 26.099 12.1922 26.1113 12.0087C26.1237 11.8252 26.0852 11.6419 26.0001 11.4788ZM18.5101 20.9988H7.59009L2.17009 11.9988L7.59009 2.99885H18.5101L23.9301 11.9988L18.5101 20.9988Z" fill="black"/>
<path d="M13 5C12.7348 5 12.4804 5.10536 12.2929 5.29289C12.1054 5.48043 12 5.73478 12 6V14C12 14.2652 12.1054 14.5196 12.2929 14.7071C12.4804 14.8946 12.7348 15 13 15C13.2652 15 13.5196 14.8946 13.7071 14.7071C13.8946 14.5196 14 14.2652 14 14V6C14 5.73478 13.8946 5.48043 13.7071 5.29289C13.5196 5.10536 13.2652 5 13 5Z" fill="black"/>
<path d="M13 16C12.7348 16 12.4804 16.1054 12.2929 16.2929C12.1054 16.4804 12 16.7348 12 17V18C12 18.2652 12.1054 18.5196 12.2929 18.7071C12.4804 18.8946 12.7348 19 13 19C13.2652 19 13.5196 18.8946 13.7071 18.7071C13.8946 18.5196 14 18.2652 14 18V17C14 16.7348 13.8946 16.4804 13.7071 16.2929C13.5196 16.1054 13.2652 16 13 16Z" fill="black"/>
</svg>
