<svg width="207" height="43" viewBox="0 0 207 43" fill="none" xmlns="http://www.w3.org/2000/svg">
<path fill-rule="evenodd" clip-rule="evenodd" d="M0.569336 17.6421V0.322998H5.89438L9.91829 12.2329H9.96648L13.7735 0.322998H19.0985V17.6421H15.5565V5.36833H15.5083L11.2917 17.6421H8.37619L4.15952 5.48961H4.11133V17.6421H0.569336ZM22.4292 17.6421V0.322998H26.2121V17.6421H22.4292ZM0.569336 24.5794V41.8985H12.7374V38.6967H4.35229V24.5794H0.569336ZM21.4303 28.8486L19.1894 35.2038H23.6471L21.4785 28.8486H21.4303ZM13.0452 41.8985L19.5509 24.5794H23.4302L29.8636 41.8985H25.9361L24.635 38.0417H18.2015L16.8522 41.8985H13.0452ZM35.1302 31.5895V27.5387H38.6722C39.0095 27.5387 39.3308 27.571 39.636 27.6358C39.9572 27.6843 40.2384 27.7813 40.4793 27.9268C40.7203 28.0724 40.913 28.2745 41.0576 28.5332C41.2022 28.7919 41.2745 29.1234 41.2745 29.5278C41.2745 30.2554 41.0576 30.7809 40.6239 31.1044C40.1902 31.4278 39.636 31.5895 38.9613 31.5895H35.1302ZM31.3472 24.5794V41.8985H39.6842C40.4552 41.8985 41.2022 41.8015 41.925 41.6074C42.664 41.4134 43.3146 41.1142 43.8768 40.71C44.455 40.3056 44.9129 39.7882 45.2502 39.1575C45.5875 38.5107 45.7562 37.7507 45.7562 36.8774C45.7562 35.794 45.4911 34.8722 44.9611 34.1122C44.4471 33.336 43.6599 32.7942 42.5997 32.487C43.3708 32.115 43.949 31.6381 44.3346 31.0559C44.7362 30.4737 44.937 29.7461 44.937 28.8728C44.937 28.0642 44.8004 27.385 44.5273 26.8353C44.2703 26.2854 43.9009 25.8488 43.419 25.5254C42.937 25.1859 42.3588 24.9433 41.6841 24.7977C41.0094 24.6522 40.2625 24.5794 39.4432 24.5794H31.3472ZM35.1302 38.9392V34.185H39.2505C40.0697 34.185 40.7283 34.379 41.2263 34.7671C41.7243 35.139 41.9732 35.7697 41.9732 36.6591C41.9732 37.1118 41.893 37.4839 41.7323 37.7749C41.5877 38.066 41.387 38.3004 41.1299 38.4784C40.8729 38.64 40.5757 38.7613 40.2384 38.8422C39.9011 38.9068 39.5476 38.9392 39.1782 38.9392H35.1302ZM51.5896 31.1044C51.4291 31.8159 51.3487 32.5516 51.3487 33.3117C51.3487 34.0394 51.4291 34.7509 51.5896 35.4463C51.7664 36.1255 52.0395 36.74 52.4089 37.2898C52.7784 37.8395 53.2603 38.2843 53.8546 38.6239C54.449 38.9473 55.1718 39.109 56.0232 39.109C56.8746 39.109 57.5975 38.9473 58.1917 38.6239C58.7861 38.2843 59.268 37.8395 59.6375 37.2898C60.007 36.74 60.272 36.1255 60.4326 35.4463C60.6094 34.7509 60.6976 34.0394 60.6976 33.3117C60.6976 32.5516 60.6094 31.8159 60.4326 31.1044C60.272 30.3928 60.007 29.7622 59.6375 29.2124C59.268 28.6464 58.7861 28.2017 58.1917 27.8783C57.5975 27.5387 56.8746 27.3689 56.0232 27.3689C55.1718 27.3689 54.449 27.5387 53.8546 27.8783C53.2603 28.2017 52.7784 28.6464 52.4089 29.2124C52.0395 29.7622 51.7664 30.3928 51.5896 31.1044ZM48.144 36.8532C47.7585 35.7535 47.5657 34.5731 47.5657 33.3117C47.5657 32.018 47.7585 30.8214 48.144 29.7218C48.5296 28.606 49.0837 27.6357 49.8066 26.811C50.5295 25.9863 51.413 25.3394 52.4571 24.8705C53.5173 24.4015 54.706 24.1671 56.0232 24.1671C57.3565 24.1671 58.5452 24.4015 59.5893 24.8705C60.6335 25.3394 61.5169 25.9863 62.2397 26.811C62.9626 27.6357 63.5168 28.606 63.9023 29.7218C64.2878 30.8214 64.4806 32.018 64.4806 33.3117C64.4806 34.5731 64.2878 35.7535 63.9023 36.8532C63.5168 37.9366 62.9626 38.8826 62.2397 39.6912C61.5169 40.4997 60.6335 41.1384 59.5893 41.6074C58.5452 42.0602 57.3565 42.2866 56.0232 42.2866C54.706 42.2866 53.5173 42.0602 52.4571 41.6074C51.413 41.1384 50.5295 40.4997 49.8066 39.6912C49.0837 38.8826 48.5296 37.9366 48.144 36.8532ZM70.8495 32.4143V27.5387H74.9939C75.8613 27.5387 76.5119 27.7328 76.9456 28.1209C77.3793 28.4928 77.5962 29.0992 77.5962 29.9401C77.5962 30.8133 77.3793 31.444 76.9456 31.8321C76.5119 32.2202 75.8613 32.4143 74.9939 32.4143H70.8495ZM67.0666 24.5794V41.8985H70.8495V35.131H74.6325C75.5802 35.131 76.2628 35.3411 76.6806 35.7617C77.0982 36.1821 77.3712 36.845 77.4998 37.7507C77.5962 38.4459 77.6685 39.1736 77.7167 39.9338C77.7648 40.6937 77.8933 41.3487 78.1022 41.8985H81.8851C81.7085 41.656 81.5719 41.3649 81.4755 41.0253C81.3951 40.6695 81.3309 40.2976 81.2828 39.9095C81.2506 39.5214 81.2265 39.1413 81.2105 38.7694C81.1944 38.3974 81.1783 38.0741 81.1623 37.7992C81.1301 37.3626 81.0659 36.926 80.9695 36.4893C80.8891 36.0527 80.7527 35.6565 80.5599 35.3008C80.3671 34.9288 80.1181 34.6134 79.8129 34.3548C79.5077 34.0798 79.1222 33.8777 78.6564 33.7484V33.6999C79.6202 33.3118 80.3108 32.7457 80.7286 32.0019C81.1623 31.258 81.3791 30.3767 81.3791 29.358C81.3791 28.6949 81.2587 28.0804 81.0177 27.5145C80.7927 26.9323 80.4554 26.4229 80.0057 25.9863C79.572 25.5497 79.0419 25.2101 78.4154 24.9675C77.8049 24.7088 77.1143 24.5794 76.3432 24.5794H67.0666ZM91.0336 28.8486L88.7927 35.2038H93.2503L91.0817 28.8486H91.0336ZM82.6484 41.8985L89.1541 24.5794H93.0335L99.4669 41.8985H95.5394L94.2382 38.0417H87.8048L86.4555 41.8985H82.6484ZM104.758 27.7813V41.8985H108.54V27.7813H113.697V24.5794H99.6012V27.7813H104.758ZM118.957 31.1044C118.796 31.8159 118.716 32.5516 118.716 33.3117C118.716 34.0394 118.796 34.7509 118.957 35.4463C119.134 36.1255 119.408 36.74 119.777 37.2898C120.146 37.8395 120.628 38.2843 121.222 38.6239C121.817 38.9473 122.54 39.109 123.391 39.109C124.242 39.109 124.965 38.9473 125.56 38.6239C126.154 38.2843 126.636 37.8395 127.005 37.2898C127.374 36.74 127.639 36.1255 127.8 35.4463C127.977 34.7509 128.065 34.0394 128.065 33.3117C128.065 32.5516 127.977 31.8159 127.8 31.1044C127.639 30.3928 127.374 29.7622 127.005 29.2124C126.636 28.6464 126.154 28.2017 125.56 27.8783C124.965 27.5387 124.242 27.3689 123.391 27.3689C122.54 27.3689 121.817 27.5387 121.222 27.8783C120.628 28.2017 120.146 28.6464 119.777 29.2124C119.408 29.7622 119.134 30.3928 118.957 31.1044ZM115.512 36.8532C115.126 35.7535 114.934 34.5731 114.934 33.3117C114.934 32.018 115.126 30.8214 115.512 29.7218C115.897 28.606 116.451 27.6357 117.174 26.811C117.897 25.9863 118.781 25.3394 119.825 24.8705C120.885 24.4015 122.073 24.1671 123.391 24.1671C124.724 24.1671 125.913 24.4015 126.957 24.8705C128.001 25.3394 128.885 25.9863 129.607 26.811C130.33 27.6357 130.885 28.606 131.27 29.7218C131.656 30.8214 131.848 32.018 131.848 33.3117C131.848 34.5731 131.656 35.7535 131.27 36.8532C130.885 37.9366 130.33 38.8826 129.607 39.6912C128.885 40.4997 128.001 41.1384 126.957 41.6074C125.913 42.0602 124.724 42.2866 123.391 42.2866C122.073 42.2866 120.885 42.0602 119.825 41.6074C118.781 41.1384 117.897 40.4997 117.174 39.6912C116.451 38.8826 115.897 37.9366 115.512 36.8532ZM138.217 32.4143V27.5387H142.362C143.229 27.5387 143.88 27.7328 144.313 28.1209C144.747 28.4928 144.964 29.0992 144.964 29.9401C144.964 30.8133 144.747 31.444 144.313 31.8321C143.88 32.2202 143.229 32.4143 142.362 32.4143H138.217ZM134.434 24.5794V41.8985H138.217V35.131H142C142.947 35.131 143.631 35.3411 144.048 35.7617C144.465 36.1821 144.739 36.845 144.867 37.7507C144.964 38.4459 145.036 39.1736 145.084 39.9338C145.133 40.6937 145.261 41.3487 145.47 41.8985H149.253C149.076 41.656 148.94 41.3649 148.843 41.0253C148.763 40.6695 148.699 40.2976 148.65 39.9095C148.619 39.5214 148.595 39.1413 148.578 38.7694C148.562 38.3974 148.546 38.0741 148.53 37.7992C148.498 37.3626 148.434 36.926 148.337 36.4893C148.257 36.0527 148.12 35.6565 147.928 35.3008C147.735 34.9288 147.486 34.6134 147.181 34.3548C146.875 34.0798 146.49 33.8777 146.024 33.7484V33.6999C146.988 33.3118 147.679 32.7457 148.096 32.0019C148.53 31.258 148.747 30.3767 148.747 29.358C148.747 28.6949 148.626 28.0804 148.385 27.5145C148.161 26.9323 147.824 26.4229 147.373 25.9863C146.94 25.5497 146.41 25.2101 145.783 24.9675C145.173 24.7088 144.482 24.5794 143.711 24.5794H134.434ZM151.823 41.8985V24.5794H155.606V41.8985H151.823ZM158.929 24.5794V41.8985H171.989V38.6967H162.712V34.4518H171.049V31.4925H162.712V27.7813H171.796V24.5794H158.929ZM173.47 36.1497H177.132C177.132 36.7319 177.236 37.2251 177.445 37.6294C177.654 38.0336 177.927 38.3651 178.265 38.6239C178.618 38.8665 179.028 39.0524 179.493 39.1818C179.959 39.2949 180.441 39.3516 180.939 39.3516C181.276 39.3516 181.638 39.3273 182.023 39.2788C182.409 39.2141 182.77 39.1009 183.108 38.9392C183.445 38.7775 183.727 38.5592 183.951 38.2843C184.176 37.9932 184.288 37.6294 184.288 37.1928C184.288 36.7237 184.136 36.3438 183.831 36.0527C183.541 35.7617 183.156 35.5191 182.674 35.325C182.192 35.131 181.646 34.9612 181.035 34.8156C180.425 34.6701 179.807 34.5084 179.18 34.3305C178.537 34.1688 177.911 33.9747 177.301 33.7484C176.691 33.5058 176.144 33.1985 175.662 32.8266C175.18 32.4546 174.787 31.9937 174.482 31.444C174.192 30.8779 174.048 30.1988 174.048 29.4065C174.048 28.517 174.233 27.7489 174.602 27.1021C174.988 26.439 175.486 25.8893 176.096 25.4527C176.706 25.0161 177.397 24.6926 178.168 24.4824C178.939 24.2722 179.71 24.1671 180.481 24.1671C181.38 24.1671 182.24 24.2722 183.06 24.4824C183.895 24.6765 184.633 24.9998 185.276 25.4527C185.919 25.9054 186.425 26.4875 186.794 27.1991C187.18 27.8944 187.373 28.7434 187.373 29.7461H183.71C183.678 29.2285 183.565 28.8001 183.373 28.4605C183.196 28.1209 182.955 27.8541 182.65 27.66C182.344 27.466 181.992 27.3285 181.59 27.2476C181.204 27.1667 180.778 27.1264 180.313 27.1264C180.007 27.1264 179.703 27.1587 179.397 27.2234C179.091 27.288 178.811 27.4012 178.554 27.563C178.313 27.7246 178.112 27.9268 177.951 28.1694C177.79 28.412 177.71 28.7191 177.71 29.0911C177.71 29.4307 177.775 29.7056 177.903 29.9159C178.031 30.126 178.281 30.3201 178.65 30.498C179.036 30.6758 179.558 30.8537 180.216 31.0316C180.891 31.2095 181.766 31.4358 182.843 31.7108C183.164 31.7754 183.606 31.8967 184.168 32.0747C184.746 32.2363 185.317 32.5031 185.879 32.8751C186.44 33.247 186.922 33.7484 187.324 34.379C187.742 34.9935 187.951 35.7859 187.951 36.7562C187.951 37.5485 187.799 38.2843 187.493 38.9635C187.187 39.6427 186.73 40.2329 186.12 40.7342C185.525 41.2193 184.778 41.5993 183.879 41.8743C182.995 42.1491 181.968 42.2866 180.795 42.2866C179.847 42.2866 178.923 42.1653 178.024 41.9228C177.14 41.6963 176.353 41.3325 175.662 40.8312C174.988 40.3299 174.45 39.6912 174.048 38.915C173.646 38.1388 173.453 37.217 173.47 36.1497ZM195.672 39.4067C196.65 39.8183 197.695 40.0242 198.805 40.0242C199.914 40.0242 200.951 39.8183 201.915 39.4067C202.893 38.995 203.747 38.4217 204.478 37.6867C205.208 36.937 205.778 36.077 206.187 35.1067C206.61 34.1365 206.822 33.0927 206.822 31.9754C206.822 30.8581 206.61 29.8144 206.187 28.8442C205.778 27.8739 205.208 27.0212 204.478 26.2862C203.747 25.5511 202.893 24.9778 201.915 24.5662C200.951 24.1399 199.914 23.9267 198.805 23.9267C197.695 23.9267 196.65 24.1399 195.672 24.5662C194.708 24.9778 193.854 25.5511 193.109 26.2862C192.379 27.0212 191.809 27.8739 191.401 28.8442C190.992 29.8144 190.788 30.8581 190.788 31.9754C190.788 33.0927 190.992 34.1365 191.401 35.1067C191.809 36.077 192.379 36.937 193.109 37.6867C193.854 38.4217 194.708 38.995 195.672 39.4067ZM201.214 37.797C200.469 38.1204 199.667 38.2821 198.805 38.2821C197.928 38.2821 197.11 38.1204 196.351 37.797C195.607 37.4735 194.949 37.0252 194.38 36.4519C193.81 35.8785 193.365 35.2096 193.044 34.4452C192.723 33.6807 192.562 32.8575 192.562 31.9754C192.562 31.0934 192.723 30.2775 193.044 29.5278C193.365 28.7632 193.81 28.0944 194.38 27.5211C194.949 26.9478 195.607 26.4993 196.351 26.176C197.11 25.8525 197.928 25.6908 198.805 25.6908C199.667 25.6908 200.469 25.8525 201.214 26.176C201.973 26.4993 202.638 26.9478 203.207 27.5211C203.777 28.0944 204.223 28.7632 204.544 29.5278C204.865 30.2775 205.026 31.0934 205.026 31.9754C205.026 32.8575 204.865 33.6807 204.544 34.4452C204.223 35.2096 203.777 35.8785 203.207 36.4519C202.638 37.0252 201.973 37.4735 201.214 37.797ZM195.628 27.8519V36.1211H197.731V33.6954H198.98L199.834 35.1949C199.995 35.4595 200.207 35.6801 200.469 35.8565C200.746 36.0329 201.068 36.1211 201.433 36.1211H202.66V34.357H201.871C201.769 34.357 201.674 34.3055 201.587 34.2026L200.951 33.1442C201.36 32.8942 201.682 32.5634 201.915 32.1519C202.164 31.7255 202.288 31.2478 202.288 30.7185C202.288 30.1599 202.148 29.6673 201.871 29.2411C201.608 28.8147 201.25 28.4766 200.798 28.2267C200.36 27.9768 199.87 27.8519 199.33 27.8519H195.628ZM199.155 31.8211H197.731V29.7483H199.155C199.418 29.7483 199.651 29.8365 199.856 30.0129C200.075 30.1893 200.185 30.4245 200.185 30.7185C200.185 31.086 200.083 31.3653 199.878 31.5565C199.673 31.7329 199.432 31.8211 199.155 31.8211Z" fill="#0F0E12"/>
</svg>
