<svg width="172" height="48" viewBox="0 0 172 48" fill="none" xmlns="http://www.w3.org/2000/svg">
<path d="M163.515 39.3C162.502 39.3 161.549 39.1133 160.655 38.74C159.775 38.3667 158.995 37.8467 158.315 37.18C157.649 36.5 157.129 35.72 156.755 34.84C156.382 33.96 156.195 33.0133 156.195 32C156.195 30.9867 156.382 30.04 156.755 29.16C157.129 28.28 157.649 27.5067 158.315 26.84C158.995 26.1733 159.775 25.6533 160.655 25.28C161.549 24.8933 162.502 24.7 163.515 24.7C164.529 24.7 165.475 24.8933 166.355 25.28C167.249 25.6533 168.029 26.1733 168.695 26.84C169.362 27.5067 169.882 28.28 170.255 29.16C170.642 30.04 170.835 30.9867 170.835 32C170.835 33.0133 170.642 33.96 170.255 34.84C169.882 35.72 169.362 36.5 168.695 37.18C168.029 37.8467 167.249 38.3667 166.355 38.74C165.475 39.1133 164.529 39.3 163.515 39.3ZM163.515 37.72C164.302 37.72 165.035 37.5733 165.715 37.28C166.409 36.9867 167.015 36.58 167.535 36.06C168.055 35.54 168.462 34.9333 168.755 34.24C169.049 33.5467 169.195 32.8 169.195 32C169.195 31.2 169.049 30.46 168.755 29.78C168.462 29.0867 168.055 28.48 167.535 27.96C167.015 27.44 166.409 27.0333 165.715 26.74C165.035 26.4467 164.302 26.3 163.515 26.3C162.715 26.3 161.969 26.4467 161.275 26.74C160.595 27.0333 159.995 27.44 159.475 27.96C158.955 28.48 158.549 29.0867 158.255 29.78C157.962 30.46 157.815 31.2 157.815 32C157.815 32.8 157.962 33.5467 158.255 34.24C158.549 34.9333 158.955 35.54 159.475 36.06C159.995 36.58 160.595 36.9867 161.275 37.28C161.969 37.5733 162.715 37.72 163.515 37.72ZM160.615 35.76V28.26H163.995C164.489 28.26 164.935 28.3733 165.335 28.6C165.749 28.8267 166.075 29.1333 166.315 29.52C166.569 29.9067 166.695 30.3533 166.695 30.86C166.695 31.34 166.582 31.7733 166.355 32.16C166.142 32.5333 165.849 32.8333 165.475 33.06L166.055 34.02C166.135 34.1133 166.222 34.16 166.315 34.16H167.035V35.76H165.915C165.582 35.76 165.289 35.68 165.035 35.52C164.795 35.36 164.602 35.16 164.455 34.92L163.675 33.56H162.535V35.76H160.615ZM162.535 31.86H163.835C164.089 31.86 164.309 31.78 164.495 31.62C164.682 31.4467 164.775 31.1933 164.775 30.86C164.775 30.5933 164.675 30.38 164.475 30.22C164.289 30.06 164.075 29.98 163.835 29.98H162.535V31.86Z" fill="#0F0E12"/>
<path d="M1.518 3.292V19H4.752V7.978H4.796L8.646 19H11.308L15.158 7.868H15.202V19H18.436V3.292H13.574L10.098 14.094H10.054L6.38 3.292H1.518ZM21.477 3.292V19H24.931V3.292H21.477ZM1.518 25.292V41H12.628V38.096H4.972V25.292H1.518ZM18.519 34.928L20.565 29.164H20.609L22.589 34.928H18.519ZM18.849 25.292L12.909 41H16.385L17.617 37.502H23.491L24.679 41H28.265L22.391 25.292H18.849ZM33.0736 31.65V27.976H36.3076C36.6156 27.976 36.9089 28.0053 37.1876 28.064C37.4809 28.108 37.7376 28.196 37.9576 28.328C38.1776 28.46 38.3536 28.6433 38.4856 28.878C38.6176 29.1127 38.6836 29.4133 38.6836 29.78C38.6836 30.44 38.4856 30.9167 38.0896 31.21C37.6936 31.5033 37.1876 31.65 36.5716 31.65H33.0736ZM29.6196 25.292V41H37.2316C37.9356 41 38.6176 40.912 39.2776 40.736C39.9522 40.56 40.5462 40.2887 41.0596 39.922C41.5876 39.5553 42.0056 39.086 42.3136 38.514C42.6216 37.9273 42.7756 37.238 42.7756 36.446C42.7756 35.4633 42.5336 34.6273 42.0496 33.938C41.5802 33.234 40.8616 32.7427 39.8936 32.464C40.5976 32.1267 41.1256 31.694 41.4776 31.166C41.8442 30.638 42.0276 29.978 42.0276 29.186C42.0276 28.4527 41.9029 27.8367 41.6536 27.338C41.4189 26.8393 41.0816 26.4433 40.6416 26.15C40.2016 25.842 39.6736 25.622 39.0576 25.49C38.4416 25.358 37.7596 25.292 37.0116 25.292H29.6196ZM33.0736 38.316V34.004H36.8356C37.5836 34.004 38.1849 34.18 38.6396 34.532C39.0942 34.8693 39.3216 35.4413 39.3216 36.248C39.3216 36.6587 39.2482 36.996 39.1016 37.26C38.9696 37.524 38.7862 37.7367 38.5516 37.898C38.3169 38.0447 38.0456 38.1547 37.7376 38.228C37.4296 38.2867 37.1069 38.316 36.7696 38.316H33.0736ZM47.8818 33.212C47.8818 32.5227 47.9551 31.8553 48.1018 31.21C48.2631 30.5647 48.5125 29.9927 48.8498 29.494C49.1871 28.9807 49.6271 28.5773 50.1698 28.284C50.7125 27.976 51.3725 27.822 52.1498 27.822C52.9271 27.822 53.5871 27.976 54.1298 28.284C54.6725 28.5773 55.1125 28.9807 55.4498 29.494C55.7871 29.9927 56.0291 30.5647 56.1758 31.21C56.3371 31.8553 56.4178 32.5227 56.4178 33.212C56.4178 33.872 56.3371 34.5173 56.1758 35.148C56.0291 35.764 55.7871 36.3213 55.4498 36.82C55.1125 37.3187 54.6725 37.722 54.1298 38.03C53.5871 38.3233 52.9271 38.47 52.1498 38.47C51.3725 38.47 50.7125 38.3233 50.1698 38.03C49.6271 37.722 49.1871 37.3187 48.8498 36.82C48.5125 36.3213 48.2631 35.764 48.1018 35.148C47.9551 34.5173 47.8818 33.872 47.8818 33.212ZM44.4278 33.212C44.4278 34.356 44.6038 35.4267 44.9558 36.424C45.3078 37.4067 45.8138 38.2647 46.4738 38.998C47.1338 39.7313 47.9405 40.3107 48.8938 40.736C49.8618 41.1467 50.9471 41.352 52.1498 41.352C53.3671 41.352 54.4525 41.1467 55.4058 40.736C56.3591 40.3107 57.1658 39.7313 57.8258 38.998C58.4858 38.2647 58.9918 37.4067 59.3438 36.424C59.6958 35.4267 59.8718 34.356 59.8718 33.212C59.8718 32.0387 59.6958 30.9533 59.3438 29.956C58.9918 28.944 58.4858 28.064 57.8258 27.316C57.1658 26.568 56.3591 25.9813 55.4058 25.556C54.4525 25.1307 53.3671 24.918 52.1498 24.918C50.9471 24.918 49.8618 25.1307 48.8938 25.556C47.9405 25.9813 47.1338 26.568 46.4738 27.316C45.8138 28.064 45.3078 28.944 44.9558 29.956C44.6038 30.9533 44.4278 32.0387 44.4278 33.212ZM65.6868 32.398V27.976H69.4708C70.2628 27.976 70.8568 28.152 71.2528 28.504C71.6488 28.8413 71.8468 29.3913 71.8468 30.154C71.8468 30.946 71.6488 31.518 71.2528 31.87C70.8568 32.222 70.2628 32.398 69.4708 32.398H65.6868ZM62.2328 25.292V41H65.6868V34.862H69.1408C70.0062 34.862 70.6295 35.0527 71.0108 35.434C71.3922 35.8153 71.6415 36.4167 71.7588 37.238C71.8468 37.8687 71.9128 38.5287 71.9568 39.218C72.0008 39.9073 72.1182 40.5013 72.3088 41H75.7628C75.6015 40.78 75.4768 40.516 75.3888 40.208C75.3155 39.8853 75.2568 39.548 75.2128 39.196C75.1835 38.844 75.1615 38.4993 75.1468 38.162C75.1322 37.8247 75.1175 37.5313 75.1028 37.282C75.0735 36.886 75.0148 36.49 74.9268 36.094C74.8535 35.698 74.7288 35.3387 74.5528 35.016C74.3768 34.6787 74.1495 34.3927 73.8708 34.158C73.5922 33.9087 73.2402 33.7253 72.8148 33.608V33.564C73.6948 33.212 74.3255 32.6987 74.7068 32.024C75.1028 31.3493 75.3008 30.55 75.3008 29.626C75.3008 29.0247 75.1908 28.4673 74.9708 27.954C74.7655 27.426 74.4575 26.964 74.0468 26.568C73.6508 26.172 73.1668 25.864 72.5948 25.644C72.0375 25.4093 71.4068 25.292 70.7028 25.292H62.2328ZM82.0698 34.928L84.1158 29.164H84.1598L86.1398 34.928H82.0698ZM82.3998 25.292L76.4598 41H79.9358L81.1678 37.502H87.0418L88.2298 41H91.8158L85.9418 25.292H82.3998ZM96.6463 28.196V41H100.1V28.196H104.808V25.292H91.9383V28.196H96.6463ZM109.392 33.212C109.392 32.5227 109.465 31.8553 109.612 31.21C109.773 30.5647 110.022 29.9927 110.36 29.494C110.697 28.9807 111.137 28.5773 111.68 28.284C112.222 27.976 112.882 27.822 113.66 27.822C114.437 27.822 115.097 27.976 115.64 28.284C116.182 28.5773 116.622 28.9807 116.96 29.494C117.297 29.9927 117.539 30.5647 117.686 31.21C117.847 31.8553 117.928 32.5227 117.928 33.212C117.928 33.872 117.847 34.5173 117.686 35.148C117.539 35.764 117.297 36.3213 116.96 36.82C116.622 37.3187 116.182 37.722 115.64 38.03C115.097 38.3233 114.437 38.47 113.66 38.47C112.882 38.47 112.222 38.3233 111.68 38.03C111.137 37.722 110.697 37.3187 110.36 36.82C110.022 36.3213 109.773 35.764 109.612 35.148C109.465 34.5173 109.392 33.872 109.392 33.212ZM105.938 33.212C105.938 34.356 106.114 35.4267 106.466 36.424C106.818 37.4067 107.324 38.2647 107.984 38.998C108.644 39.7313 109.45 40.3107 110.404 40.736C111.372 41.1467 112.457 41.352 113.66 41.352C114.877 41.352 115.962 41.1467 116.916 40.736C117.869 40.3107 118.676 39.7313 119.336 38.998C119.996 38.2647 120.502 37.4067 120.854 36.424C121.206 35.4267 121.382 34.356 121.382 33.212C121.382 32.0387 121.206 30.9533 120.854 29.956C120.502 28.944 119.996 28.064 119.336 27.316C118.676 26.568 117.869 25.9813 116.916 25.556C115.962 25.1307 114.877 24.918 113.66 24.918C112.457 24.918 111.372 25.1307 110.404 25.556C109.45 25.9813 108.644 26.568 107.984 27.316C107.324 28.064 106.818 28.944 106.466 29.956C106.114 30.9533 105.938 32.0387 105.938 33.212ZM127.197 32.398V27.976H130.981C131.773 27.976 132.367 28.152 132.763 28.504C133.159 28.8413 133.357 29.3913 133.357 30.154C133.357 30.946 133.159 31.518 132.763 31.87C132.367 32.222 131.773 32.398 130.981 32.398H127.197ZM123.743 25.292V41H127.197V34.862H130.651C131.516 34.862 132.139 35.0527 132.521 35.434C132.902 35.8153 133.151 36.4167 133.269 37.238C133.357 37.8687 133.423 38.5287 133.467 39.218C133.511 39.9073 133.628 40.5013 133.819 41H137.273C137.111 40.78 136.987 40.516 136.899 40.208C136.825 39.8853 136.767 39.548 136.723 39.196C136.693 38.844 136.671 38.4993 136.657 38.162C136.642 37.8247 136.627 37.5313 136.613 37.282C136.583 36.886 136.525 36.49 136.437 36.094C136.363 35.698 136.239 35.3387 136.063 35.016C135.887 34.6787 135.659 34.3927 135.381 34.158C135.102 33.9087 134.75 33.7253 134.325 33.608V33.564C135.205 33.212 135.835 32.6987 136.217 32.024C136.613 31.3493 136.811 30.55 136.811 29.626C136.811 29.0247 136.701 28.4673 136.481 27.954C136.275 27.426 135.967 26.964 135.557 26.568C135.161 26.172 134.677 25.864 134.105 25.644C133.547 25.4093 132.917 25.292 132.213 25.292H123.743ZM143.69 34.884V41H147.144V34.972L152.974 25.292H149.124L145.472 31.496L141.798 25.292H137.926L143.69 34.884Z" fill="#0F0E12"/>
</svg>
