<svg width="163" height="39" viewBox="0 0 163 39" fill="none" xmlns="http://www.w3.org/2000/svg">
<path d="M155.188 36.1392C154.17 36.1392 153.213 35.9534 152.316 35.5817C151.432 35.21 150.648 34.6923 149.965 34.0286C149.296 33.3517 148.773 32.5751 148.399 31.6991C148.024 30.823 147.836 29.8805 147.836 28.8717C147.836 27.8629 148.024 26.9204 148.399 26.0444C148.773 25.1683 149.296 24.3984 149.965 23.7347C150.648 23.071 151.432 22.5533 152.316 22.1816C153.213 21.7967 154.17 21.6042 155.188 21.6042C156.206 21.6042 157.157 21.7967 158.04 22.1816C158.938 22.5533 159.721 23.071 160.391 23.7347C161.06 24.3984 161.583 25.1683 161.958 26.0444C162.346 26.9204 162.54 27.8629 162.54 28.8717C162.54 29.8805 162.346 30.823 161.958 31.6991C161.583 32.5751 161.06 33.3517 160.391 34.0286C159.721 34.6923 158.938 35.21 158.04 35.5817C157.157 35.9534 156.206 36.1392 155.188 36.1392ZM155.188 34.5662C155.978 34.5662 156.715 34.4202 157.398 34.1282C158.094 33.8362 158.703 33.4313 159.226 32.9136C159.748 32.3959 160.156 31.792 160.451 31.1017C160.746 30.4115 160.893 29.6681 160.893 28.8717C160.893 28.0753 160.746 27.3386 160.451 26.6616C160.156 25.9714 159.748 25.3674 159.226 24.8497C158.703 24.332 158.094 23.9272 157.398 23.6351C156.715 23.3431 155.978 23.1971 155.188 23.1971C154.385 23.1971 153.635 23.3431 152.938 23.6351C152.255 23.9272 151.653 24.332 151.13 24.8497C150.608 25.3674 150.2 25.9714 149.905 26.6616C149.61 27.3386 149.463 28.0753 149.463 28.8717C149.463 29.6681 149.61 30.4115 149.905 31.1017C150.2 31.792 150.608 32.3959 151.13 32.9136C151.653 33.4313 152.255 33.8362 152.938 34.1282C153.635 34.4202 154.385 34.5662 155.188 34.5662ZM152.275 32.615V25.1484H155.67C156.166 25.1484 156.614 25.2612 157.016 25.4869C157.431 25.7125 157.759 26.0178 158 26.4028C158.255 26.7877 158.382 27.2324 158.382 27.7368C158.382 28.2146 158.268 28.646 158.04 29.031C157.826 29.4027 157.532 29.7013 157.157 29.927L157.739 30.8827C157.82 30.9756 157.907 31.0221 158 31.0221H158.723V32.615H157.599C157.264 32.615 156.969 32.5353 156.715 32.376C156.474 32.2167 156.279 32.0176 156.132 31.7787L155.349 30.4248H154.204V32.615H152.275ZM154.204 28.7323H155.509C155.764 28.7323 155.985 28.6527 156.172 28.4934C156.36 28.3208 156.454 28.0686 156.454 27.7368C156.454 27.4713 156.353 27.2589 156.152 27.0996C155.965 26.9403 155.751 26.8607 155.509 26.8607H154.204V28.7323Z" fill="#0F0E12"/>
<path d="M0.540039 15.9296H3.34624V6.51174L7.96433 15.9296H9.02494L13.643 6.51174V15.9296H16.4492V0.160156H13.7535L8.49463 10.6293L3.23576 0.160156H0.540039V15.9296Z" fill="#0F0E12"/>
<path d="M19.7714 15.9296H22.7765V0.160156H19.7714V15.9296Z" fill="#0F0E12"/>
<path d="M0.761 37.8316H10.6159V35.0501H3.76607V22.0622H0.761V37.8316Z" fill="#0F0E12"/>
<path d="M22.5039 37.8316H25.5974L20.7362 22.0622H16.2507L11.3896 37.8316H14.483L15.4884 34.5463H21.4764L22.5039 37.8316ZM16.3391 31.7648L18.4603 24.8547L20.6147 31.7648H16.3391Z" fill="#0F0E12"/>
<path d="M37.2114 29.5417C38.1505 28.9723 38.714 27.921 38.714 26.4864C38.714 24.4057 37.344 22.0622 33.9412 22.0622H27.5775V37.8316H34.6262C37.8743 37.8316 39.4432 35.8823 39.4432 33.057C39.4432 31.5457 38.7029 30.155 37.2114 29.5417ZM30.6268 24.8437H33.897C35.046 24.8437 35.6647 25.5884 35.6647 26.5521C35.6647 27.7129 34.9134 28.2166 33.897 28.2166H30.6268V24.8437ZM34.3169 35.0282H30.6268V30.9982H34.3169C35.7089 30.9982 36.416 31.8305 36.416 32.9475C36.416 34.2178 35.5321 35.0282 34.3169 35.0282Z" fill="#0F0E12"/>
<path d="M48.4742 38.1602C53.247 38.1602 56.1858 34.8529 56.1858 29.9469C56.1858 25.0408 53.247 21.7336 48.4742 21.7336C43.7015 21.7336 40.7627 25.0408 40.7627 29.9469C40.7627 34.8529 43.7015 38.1602 48.4742 38.1602ZM48.4742 35.3567C45.4471 35.3129 43.9445 33.2322 43.9445 29.9469C43.9445 26.6616 45.4471 24.4933 48.4742 24.5371C51.5014 24.5809 53.0039 26.6616 53.0039 29.9469C53.0039 33.2322 51.5014 35.4005 48.4742 35.3567Z" fill="#0F0E12"/>
<path d="M70.7651 37.8316L67.8926 31.9838C69.7044 31.1625 70.5441 29.4212 70.5441 27.2749C70.5441 24.6247 69.2846 22.5878 66.4342 22.1498C66.0144 22.0841 65.4178 22.0622 65.1085 22.0622H58.3912V37.8316H61.3963V32.4875H64.7439L67.3623 37.8316H70.7651ZM61.3963 24.8437H64.9759C65.2852 24.8437 65.683 24.8656 65.9923 24.9532C67.2076 25.2818 67.5169 26.4207 67.5169 27.2749C67.5169 28.129 67.2076 29.2679 65.9923 29.5965C65.683 29.6841 65.2852 29.706 64.9759 29.706H61.3963V24.8437Z" fill="#0F0E12"/>
<path d="M83.2034 37.8316H86.2969L81.4357 22.0622H76.9502L72.0891 37.8316H75.1825L76.1879 34.5463H82.176L83.2034 37.8316ZM77.0386 31.7648L79.1598 24.8547L81.3142 31.7648H77.0386Z" fill="#0F0E12"/>
<path d="M91.9671 37.8316H94.9722V24.8437H99.988V22.0622H86.9513V24.8437H91.9671V37.8316Z" fill="#0F0E12"/>
<path d="M108.591 38.1602C113.364 38.1602 116.303 34.8529 116.303 29.9469C116.303 25.0408 113.364 21.7336 108.591 21.7336C103.818 21.7336 100.88 25.0408 100.88 29.9469C100.88 34.8529 103.818 38.1602 108.591 38.1602ZM108.591 35.3567C105.564 35.3129 104.061 33.2322 104.061 29.9469C104.061 26.6616 105.564 24.4933 108.591 24.5371C111.618 24.5809 113.121 26.6616 113.121 29.9469C113.121 33.2322 111.618 35.4005 108.591 35.3567Z" fill="#0F0E12"/>
<path d="M130.882 37.8316L128.009 31.9838C129.821 31.1625 130.661 29.4212 130.661 27.2749C130.661 24.6247 129.402 22.5878 126.551 22.1498C126.131 22.0841 125.535 22.0622 125.225 22.0622H118.508V37.8316H121.513V32.4875H124.861L127.479 37.8316H130.882ZM121.513 24.8437H125.093C125.402 24.8437 125.8 24.8656 126.109 24.9532C127.324 25.2818 127.634 26.4207 127.634 27.2749C127.634 28.129 127.324 29.2679 126.109 29.5965C125.8 29.6841 125.402 29.706 125.093 29.706H121.513V24.8437Z" fill="#0F0E12"/>
<path d="M137.2 37.8316H140.249V31.4143L145.685 22.0622H142.171L138.724 27.9976L135.277 22.0622H131.764L137.2 31.4143V37.8316Z" fill="#0F0E12"/>
</svg>
