<svg width="155" height="31" viewBox="0 0 155 31" fill="none" xmlns="http://www.w3.org/2000/svg">
<g clip-path="url(#clip0)">
<path fill-rule="evenodd" clip-rule="evenodd" d="M5 12.4943V0.195312H8.81842L11.7038 8.65302H11.7384L14.4683 0.195312H18.2867V12.4943H15.7469V3.7782H15.7123L12.6887 12.4943H10.5981L7.57441 3.86433H7.53986V12.4943H5ZM20.675 12.4943V0.195312H23.3876V12.4943H20.675ZM5 17.4208V29.7197H14.2344V27.4459H7.71264V17.4208H5ZM22.0616 20.4524L20.4547 24.9655H23.6511L22.0961 20.4524H22.0616ZM16.0488 29.7197L20.7139 17.4208H23.4956L28.1088 29.7197H25.2925L24.3595 26.9809H19.7463L18.7787 29.7197H16.0488ZM31.8853 22.3989V19.5223H34.4252C34.6671 19.5223 34.8974 19.5452 35.1163 19.5912C35.3466 19.6256 35.5482 19.6945 35.721 19.7979C35.8938 19.9012 36.032 20.0447 36.1357 20.2285C36.2394 20.4122 36.2912 20.6476 36.2912 20.9347C36.2912 21.4515 36.1357 21.8247 35.8247 22.0544C35.5137 22.284 35.1163 22.3989 34.6325 22.3989H31.8853ZM29.1727 17.4208V29.7197H35.1509C35.7037 29.7197 36.2394 29.6508 36.7577 29.513C37.2876 29.3752 37.7541 29.1627 38.1572 28.8757C38.5719 28.5885 38.9002 28.2211 39.1421 27.7732C39.3839 27.3139 39.5049 26.7742 39.5049 26.154C39.5049 25.3846 39.3148 24.73 38.9347 24.1903C38.5662 23.6391 38.0017 23.2544 37.2415 23.0362C37.7944 22.7721 38.209 22.4334 38.4855 22.0199C38.7735 21.6065 38.9174 21.0898 38.9174 20.4697C38.9174 19.8954 38.8195 19.4131 38.6237 19.0227C38.4394 18.6323 38.1745 18.3222 37.8289 18.0925C37.4834 17.8514 37.0687 17.6791 36.5849 17.5758C36.1011 17.4724 35.5655 17.4208 34.9781 17.4208H29.1727ZM31.8853 27.6182V24.242H34.8398C35.4273 24.242 35.8995 24.3798 36.2566 24.6554C36.6137 24.9195 36.7923 25.3674 36.7923 25.999C36.7923 26.3205 36.7347 26.5847 36.6195 26.7914C36.5158 26.9981 36.3718 27.1645 36.1875 27.2909C36.0032 27.4057 35.7901 27.4918 35.5482 27.5493C35.3064 27.5952 35.0529 27.6182 34.788 27.6182H31.8853ZM43.6879 22.0544C43.5727 22.5596 43.5151 23.0821 43.5151 23.6219C43.5151 24.1387 43.5727 24.6439 43.6879 25.1377C43.8146 25.6201 44.0104 26.0564 44.2753 26.4469C44.5403 26.8373 44.8859 27.1531 45.312 27.3943C45.7382 27.6239 46.2566 27.7388 46.867 27.7388C47.4776 27.7388 47.9959 27.6239 48.422 27.3943C48.8483 27.1531 49.1938 26.8373 49.4587 26.4469C49.7237 26.0564 49.9137 25.6201 50.0289 25.1377C50.1556 24.6439 50.2189 24.1387 50.2189 23.6219C50.2189 23.0821 50.1556 22.5596 50.0289 22.0544C49.9137 21.5491 49.7237 21.1012 49.4587 20.7108C49.1938 20.3088 48.8483 19.9931 48.422 19.7634C47.9959 19.5223 47.4776 19.4017 46.867 19.4017C46.2566 19.4017 45.7382 19.5223 45.312 19.7634C44.8859 19.9931 44.5403 20.3088 44.2753 20.7108C44.0104 21.1012 43.8146 21.5491 43.6879 22.0544ZM41.2171 26.1368C40.9407 25.3559 40.8025 24.5176 40.8025 23.6219C40.8025 22.7032 40.9407 21.8534 41.2171 21.0725C41.4936 20.2802 41.891 19.5912 42.4093 19.0055C42.9277 18.4198 43.5612 17.9605 44.3099 17.6275C45.0701 17.2944 45.9225 17.1279 46.867 17.1279C47.8231 17.1279 48.6755 17.2944 49.4242 17.6275C50.1729 17.9605 50.8064 18.4198 51.3247 19.0055C51.8431 19.5912 52.2405 20.2802 52.5169 21.0725C52.7934 21.8534 52.9316 22.7032 52.9316 23.6219C52.9316 24.5176 52.7934 25.3559 52.5169 26.1368C52.2405 26.9062 51.8431 27.578 51.3247 28.1522C50.8064 28.7263 50.1729 29.1799 49.4242 29.513C48.6755 29.8345 47.8231 29.9953 46.867 29.9953C45.9225 29.9953 45.0701 29.8345 44.3099 29.513C43.5612 29.1799 42.9277 28.7263 42.4093 28.1522C41.891 27.578 41.4936 26.9062 41.2171 26.1368ZM57.4985 22.9846V19.5223H60.4703C61.0923 19.5223 61.5588 19.6601 61.8699 19.9357C62.1809 20.1998 62.3364 20.6304 62.3364 21.2276C62.3364 21.8477 62.1809 22.2955 61.8699 22.5712C61.5588 22.8468 61.0923 22.9846 60.4703 22.9846H57.4985ZM54.7859 17.4208V29.7197H57.4985V24.9138H60.2112C60.8907 24.9138 61.3803 25.063 61.6798 25.3617C61.9793 25.6602 62.175 26.131 62.2672 26.7742C62.3364 27.2679 62.3882 27.7847 62.4227 28.3244C62.4573 28.8641 62.5494 29.3292 62.6992 29.7197H65.4118C65.2852 29.5474 65.1872 29.3407 65.1181 29.0996C65.0605 28.8469 65.0144 28.5828 64.9799 28.3072C64.9568 28.0316 64.9395 27.7617 64.928 27.4976C64.9165 27.2334 64.905 27.0038 64.8935 26.8086C64.8704 26.4986 64.8244 26.1885 64.7553 25.8784C64.6976 25.5684 64.5998 25.287 64.4615 25.0344C64.3233 24.7702 64.1447 24.5463 63.9259 24.3626C63.707 24.1673 63.4306 24.0238 63.0966 23.932V23.8975C63.7877 23.6219 64.283 23.2199 64.5825 22.6917C64.8935 22.1635 65.049 21.5376 65.049 20.8142C65.049 20.3433 64.9626 19.9069 64.7898 19.505C64.6285 19.0916 64.3866 18.7299 64.0642 18.4198C63.7531 18.1098 63.373 17.8686 62.9238 17.6964C62.486 17.5126 61.9908 17.4208 61.4379 17.4208H54.7859ZM71.9719 20.4524L70.365 24.9655H73.5614L72.0064 20.4524H71.9719ZM65.9592 29.7197L70.6242 17.4208H73.4059L78.0191 29.7197H75.2028L74.2698 26.9809H69.6566L68.6891 29.7197H65.9592ZM81.8129 19.6945V29.7197H84.5256V19.6945H88.2231V17.4208H78.1154V19.6945H81.8129ZM91.9952 22.0544C91.8798 22.5596 91.8224 23.0821 91.8224 23.6219C91.8224 24.1387 91.8798 24.6439 91.9952 25.1377C92.1216 25.6201 92.318 26.0564 92.5826 26.4469C92.8473 26.8373 93.1929 27.1531 93.6193 27.3943C94.0458 27.6239 94.5641 27.7388 95.1743 27.7388C95.7846 27.7388 96.3029 27.6239 96.7294 27.3943C97.1558 27.1531 97.5014 26.8373 97.766 26.4469C98.0307 26.0564 98.2208 25.6201 98.3362 25.1377C98.4626 24.6439 98.5263 24.1387 98.5263 23.6219C98.5263 23.0821 98.4626 22.5596 98.3362 22.0544C98.2208 21.5491 98.0307 21.1012 97.766 20.7108C97.5014 20.3088 97.1558 19.9931 96.7294 19.7634C96.3029 19.5223 95.7846 19.4017 95.1743 19.4017C94.5641 19.4017 94.0458 19.5223 93.6193 19.7634C93.1929 19.9931 92.8473 20.3088 92.5826 20.7108C92.318 21.1012 92.1216 21.5491 91.9952 22.0544ZM89.5245 26.1368C89.248 25.3559 89.1098 24.5176 89.1098 23.6219C89.1098 22.7032 89.248 21.8534 89.5245 21.0725C89.8009 20.2802 90.1983 19.5912 90.7166 19.0055C91.235 18.4198 91.8688 17.9605 92.6172 17.6275C93.3774 17.2944 94.2296 17.1279 95.1743 17.1279C96.1301 17.1279 96.983 17.2944 97.7315 17.6275C98.4799 17.9605 99.1137 18.4198 99.632 19.0055C100.15 19.5912 100.548 20.2802 100.824 21.0725C101.101 21.8534 101.239 22.7032 101.239 23.6219C101.239 24.5176 101.101 25.3559 100.824 26.1368C100.548 26.9062 100.15 27.578 99.632 28.1522C99.1137 28.7263 98.4799 29.1799 97.7315 29.513C96.983 29.8345 96.1301 29.9953 95.1743 29.9953C94.2296 29.9953 93.3774 29.8345 92.6172 29.513C91.8688 29.1799 91.235 28.7263 90.7166 28.1522C90.1983 27.578 89.8009 26.9062 89.5245 26.1368ZM105.806 22.9846V19.5223H108.778C109.4 19.5223 109.866 19.6601 110.177 19.9357C110.488 20.1998 110.644 20.6304 110.644 21.2276C110.644 21.8477 110.488 22.2955 110.177 22.5712C109.866 22.8468 109.4 22.9846 108.778 22.9846H105.806ZM103.093 17.4208V29.7197H105.806V24.9138H108.518C109.198 24.9138 109.688 25.063 109.987 25.3617C110.286 25.6602 110.483 26.131 110.574 26.7742C110.644 27.2679 110.695 27.7847 110.73 28.3244C110.765 28.8641 110.856 29.3292 111.006 29.7197H113.719C113.593 29.5474 113.494 29.3407 113.425 29.0996C113.368 28.8469 113.322 28.5828 113.287 28.3072C113.264 28.0316 113.247 27.7617 113.235 27.4976C113.224 27.2334 113.213 27.0038 113.201 26.8086C113.178 26.4986 113.132 26.1885 113.063 25.8784C113.005 25.5684 112.907 25.287 112.769 25.0344C112.631 24.7702 112.452 24.5463 112.233 24.3626C112.014 24.1673 111.738 24.0238 111.404 23.932V23.8975C112.095 23.6219 112.591 23.2199 112.89 22.6917C113.201 22.1635 113.356 21.5376 113.356 20.8142C113.356 20.3433 113.27 19.9069 113.097 19.505C112.936 19.0916 112.694 18.7299 112.371 18.4198C112.06 18.1098 111.68 17.8686 111.231 17.6964C110.794 17.5126 110.298 17.4208 109.745 17.4208H103.093ZM115.562 29.7197V17.4208H118.275V29.7197H115.562ZM120.658 17.4208V29.7197H130.022V27.4459H123.37V24.4315H129.349V22.33H123.37V19.6945H129.884V17.4208H120.658ZM131.084 25.6373H133.71C133.71 26.0507 133.785 26.4009 133.935 26.688C134.085 26.9751 134.281 27.2105 134.522 27.3943C134.776 27.5665 135.07 27.6985 135.404 27.7905C135.737 27.8708 136.083 27.911 136.44 27.911C136.682 27.911 136.941 27.8938 137.218 27.8594C137.494 27.8134 137.753 27.733 137.995 27.6182C138.237 27.5033 138.439 27.3483 138.6 27.1531C138.761 26.9464 138.842 26.688 138.842 26.378C138.842 26.0449 138.733 25.7751 138.514 25.5684C138.306 25.3617 138.03 25.1894 137.684 25.0516C137.339 24.9138 136.947 24.7932 136.509 24.6899C136.072 24.5865 135.628 24.4717 135.179 24.3454C134.718 24.2305 134.269 24.0927 133.831 23.932C133.394 23.7597 133.002 23.5415 132.656 23.2774C132.311 23.0132 132.029 22.6859 131.81 22.2955C131.603 21.8936 131.499 21.4113 131.499 20.8486C131.499 20.217 131.632 19.6715 131.896 19.2122C132.173 18.7413 132.53 18.3509 132.967 18.0409C133.405 17.7308 133.9 17.5011 134.453 17.3519C135.006 17.2025 135.559 17.1279 136.112 17.1279C136.757 17.1279 137.373 17.2025 137.961 17.3519C138.56 17.4897 139.089 17.7193 139.55 18.0409C140.011 18.3624 140.374 18.7758 140.639 19.2811C140.915 19.7748 141.054 20.3777 141.054 21.0898H138.427C138.405 20.7222 138.324 20.418 138.185 20.1768C138.059 19.9357 137.886 19.7462 137.667 19.6084C137.448 19.4706 137.195 19.3729 136.907 19.3156C136.63 19.2581 136.325 19.2294 135.991 19.2294C135.772 19.2294 135.554 19.2524 135.335 19.2983C135.115 19.3442 134.914 19.4246 134.73 19.5395C134.557 19.6543 134.413 19.7979 134.298 19.9701C134.182 20.1424 134.125 20.3605 134.125 20.6247C134.125 20.8658 134.171 21.061 134.263 21.2103C134.355 21.3596 134.534 21.4974 134.799 21.6238C135.075 21.7501 135.45 21.8763 135.922 22.0027C136.406 22.129 137.033 22.2898 137.805 22.485C138.035 22.5309 138.353 22.617 138.756 22.7434C139.17 22.8582 139.579 23.0477 139.982 23.3118C140.385 23.5759 140.731 23.932 141.019 24.3798C141.318 24.8162 141.468 25.3789 141.468 26.0679C141.468 26.6306 141.359 27.1531 141.14 27.6354C140.921 28.1177 140.593 28.5369 140.155 28.8929C139.729 29.2374 139.193 29.5072 138.548 29.7025C137.914 29.8977 137.178 29.9953 136.337 29.9953C135.657 29.9953 134.994 29.9092 134.35 29.7369C133.716 29.5761 133.152 29.3177 132.656 28.9618C132.173 28.6058 131.787 28.1522 131.499 27.601C131.211 27.0498 131.072 26.3952 131.084 25.6373ZM147.005 27.9502C147.706 28.2425 148.456 28.3886 149.251 28.3886C150.047 28.3886 150.79 28.2425 151.482 27.9502C152.183 27.6578 152.795 27.2507 153.319 26.7287C153.843 26.1963 154.252 25.5856 154.544 24.8966C154.848 24.2076 155 23.4663 155 22.6729C155 21.8795 154.848 21.1383 154.544 20.4493C154.252 19.7603 153.843 19.1547 153.319 18.6328C152.795 18.1108 152.183 17.7036 151.482 17.4114C150.79 17.1086 150.047 16.9572 149.251 16.9572C148.456 16.9572 147.706 17.1086 147.005 17.4114C146.314 17.7036 145.701 18.1108 145.167 18.6328C144.643 19.1547 144.235 19.7603 143.942 20.4493C143.649 21.1383 143.502 21.8795 143.502 22.6729C143.502 23.4663 143.649 24.2076 143.942 24.8966C144.235 25.5856 144.643 26.1963 145.167 26.7287C145.701 27.2507 146.314 27.6578 147.005 27.9502ZM150.979 26.807C150.445 27.0367 149.869 27.1516 149.251 27.1516C148.623 27.1516 148.036 27.0367 147.492 26.807C146.958 26.5773 146.487 26.259 146.078 25.8518C145.67 25.4447 145.35 24.9696 145.12 24.4268C144.89 23.8839 144.775 23.2993 144.775 22.6729C144.775 22.0466 144.89 21.4672 145.12 20.9347C145.35 20.3918 145.67 19.9169 146.078 19.5097C146.487 19.1026 146.958 18.7841 147.492 18.5545C148.036 18.3248 148.623 18.21 149.251 18.21C149.869 18.21 150.445 18.3248 150.979 18.5545C151.523 18.7841 152 19.1026 152.408 19.5097C152.817 19.9169 153.136 20.3918 153.366 20.9347C153.597 21.4672 153.712 22.0466 153.712 22.6729C153.712 23.2993 153.597 23.8839 153.366 24.4268C153.136 24.9696 152.817 25.4447 152.408 25.8518C152 26.259 151.523 26.5773 150.979 26.807ZM146.974 19.7446V25.6169H148.482V23.8944H149.377L149.989 24.9592C150.105 25.1471 150.256 25.3037 150.445 25.429C150.644 25.5543 150.875 25.6169 151.136 25.6169H152.016V24.3642H151.45C151.377 24.3642 151.309 24.3276 151.246 24.2545L150.79 23.5029C151.083 23.3254 151.314 23.0905 151.482 22.7982C151.66 22.4954 151.749 22.1562 151.749 21.7804C151.749 21.3836 151.649 21.0339 151.45 20.7312C151.262 20.4284 151.005 20.1883 150.681 20.0108C150.366 19.8333 150.015 19.7446 149.628 19.7446H146.974ZM149.502 22.5633H148.482V21.0913H149.502C149.691 21.0913 149.858 21.154 150.005 21.2792C150.162 21.4045 150.241 21.5715 150.241 21.7804C150.241 22.0413 150.168 22.2396 150.021 22.3754C149.874 22.5007 149.701 22.5633 149.502 22.5633Z" fill="#0F0E12"/>
</g>
<defs>
<clipPath id="clip0">
<rect width="155" height="30" fill="white" transform="translate(0 0.195312)"/>
</clipPath>
</defs>
</svg>
