<svg width="261" height="141" viewBox="0 0 261 141" fill="none" xmlns="http://www.w3.org/2000/svg">
<path d="M22.4992 133.139C20.8992 135.139 23.1659 138.639 24.4992 140.139H22L20 138.141L14 133.139L3 124.141L1 118.641L3 116.141L8.5 109.141L14 107.141L12 103.141L7 98.6406V94.1406L8.5 89.1406L4 87.1406L5.5 84.1406V78.6406L4.5 76.6406L4 74.6406L8.5 65.1406L14 60.1406L21.5 59.6406L24.5 54.1406V50.6406L28.5 47.6406V44.6406L33.5 41.1406L34 38.1406L38.5 37.1406L40.5 38.6406L44 41.1406L48.5 46.6406L43 48.6406L35.5 45.6406V48.6406L33.5 53.1406V55.6406L40 54.1406L40.5 52.6406L49 51.1406L55 50.6406L56.5 49.6406L60 48.6406L64.5 49.6406L70.5 46.6406L80.5 45.6406L87 50.6406V45.6406L91 35.6406H95L92 41.6406L95 45.6406L91 52.6406L84.5 55.6406L89.5 60.1406L96 55.6406L95 52.6406V50.6406L97.5 53.1406L103 52.6406L102 49.6406L97.5 48.6406L96 44.1406L98.5 35.6406V41.6406H102L100.5 39.6406L104 38.6406L105.5 43.1406L108.5 44.1406L111.334 40.6406L105.5 38.6406V33.6406L111.334 32.6406L116.5 29.1406L124.5 24.1406L125.5 20.1406L128.5 21.1406H133.5L138 25.1406L133.5 34.6406L143.5 29.1406H150L156 28.1406L160.5 29.1406L165 33.6406L166.5 30.6406H171.5L174 27.1406L173 22.6406L179.5 21.8987L178.5 25.1406L184.5 21.8987L191 22.6406L195.5 20.1406L203 21.1406L210 17.1406L214 16.1406L218.5 15.1406L214 13.1406L218.5 10.6406L236.5 4.64062H243.5V2.64062L251 1.64062V4.64062L254 6.14062L249.5 7.64062H247L243.5 9.14062H240V11.6406L242.5 13.1406L240.5 16.1406H243.5L247 17.1406L249 16.1406L252.5 17.6406L249.5 20.1406L249 24.1406L250 25.1406V29.1406V32.1406H246V36.6406L243.5 34.6406V37.1406L242.5 39.6406L246 44.6406H249L250 45.6406L251 47.1406L252.5 46.1406L254 48.6406L252.5 47.6406L251.5 48.6406L253.5 50.6406L256.5 52.6406L255 53.1406V55.6406L256.5 58.1406V61.6406L258 63.6406L259 68.1406L251 62.6406L244.5 58.1406L241 53.6406L239.5 50.1406L240 48.6406L239.5 44.1406V36.6406L234 32.1406H233L234 39.6406L231 36.6406L226.5 41.6406L228 46.6406H233C233 47.974 232 50.6406 228 50.6406H222.5V53.6406L218.5 55.1406L211.5 60.1406V70.1406L209 78.6406H214L218.5 77.1406H224.5L228 83.6406L233 94.1406L234 105.141L228 120.141L226.5 122.641L224.5 117.641L222.5 112.141L226.5 110.641L224.5 98.3547L222.5 101.641H215.5L214 99.6406H204.5L195.5 90.1406L186.5 93.1406V95.6406L188.5 99.6406L186.5 108.641H178.5L174 112.141L166.5 114.141L160.5 112.141L156 114.141L151.5 112.141V108.641H144.5L141 110.641L144.5 115.641L137 117.641V115.641L131.5 114.141L125.5 117.641L119.5 122.641L112 115.641H108.5H102V110.641L98.5 105.141L95 107.141L91 105.141L85.5 103.141V99.6406L82 97.1406L65.5 99.6406V103.141L61.5 108.641L63 114.141L50.5 108.641H47.5V107.141L41 105.141L34 110.641L29.5 107.141L26.5 114.141L29.5 122.641L28 127.139C26.8331 126.306 24.0992 125.139 22.4992 127.139C20.4992 129.639 24.4992 130.639 22.4992 133.139Z" stroke="#0F0E12" stroke-width="1.5"/>
<path d="M41.5 79.6495V49.6328" stroke="#69C7DC" stroke-width="1.5"/>
<circle cx="41.0756" cy="40.7035" r="10.5" transform="rotate(36.9649 41.0756 40.7035)" fill="#69C7DC"/>
<circle cx="41.0756" cy="40.7035" r="10.5" transform="rotate(36.9649 41.0756 40.7035)" fill="url(#paint0_radial)" fill-opacity="0.7"/>
<circle cx="41.0756" cy="40.7035" r="10.5" transform="rotate(36.9649 41.0756 40.7035)" fill="url(#paint1_radial)"/>
<circle cx="41.0756" cy="40.7035" r="10.5" transform="rotate(36.9649 41.0756 40.7035)" fill="url(#paint2_radial)"/>
<defs>
<radialGradient id="paint0_radial" cx="0" cy="0" r="1" gradientUnits="userSpaceOnUse" gradientTransform="translate(33.5756 40.7035) scale(14.625 16.5581)">
<stop stop-color="white"/>
<stop offset="1" stop-color="white" stop-opacity="0"/>
</radialGradient>
<radialGradient id="paint1_radial" cx="0" cy="0" r="1" gradientUnits="userSpaceOnUse" gradientTransform="translate(32.8256 40.7035) scale(18.75)">
<stop offset="0.681973" stop-color="#0F0E12" stop-opacity="0"/>
<stop offset="1" stop-color="#0F0E12" stop-opacity="0.19"/>
</radialGradient>
<radialGradient id="paint2_radial" cx="0" cy="0" r="1" gradientUnits="userSpaceOnUse" gradientTransform="translate(35.8256 40.7035) scale(53.25)">
<stop stop-color="#0F0E12" stop-opacity="0"/>
<stop offset="1" stop-color="#0F0E12"/>
</radialGradient>
</defs>
</svg>
