<svg width="80" height="60" viewBox="0 0 80 60" fill="none" xmlns="http://www.w3.org/2000/svg">
<rect width="80" height="60" fill="#0F0E12"/>
<path fill-rule="evenodd" clip-rule="evenodd" d="M34.4582 42.0833V40.6953H32.9931V42.0833H34.4582ZM11.9072 49.8712V46.0929H14.2719C14.6403 46.0929 14.9423 46.14 15.1779 46.2343C15.4135 46.3285 15.5998 46.4763 15.7369 46.6776C15.874 46.879 15.9682 47.1317 16.0197 47.4359C16.0711 47.74 16.0968 48.102 16.0968 48.5218C16.0968 48.7446 16.1075 48.9759 16.1289 49.2158C16.1503 49.4557 16.221 49.6742 16.3409 49.8712H18.063C17.8917 49.6827 17.7653 49.3679 17.6839 48.9266C17.6025 48.4854 17.5618 47.9949 17.5618 47.4552C17.5618 47.0953 17.5168 46.7954 17.4269 46.5556C17.3369 46.3157 17.2234 46.1208 17.0863 45.9708C16.9492 45.8209 16.8014 45.7116 16.6429 45.6431C16.4844 45.5746 16.3367 45.5317 16.1996 45.5146V45.4889C16.2767 45.4632 16.3988 45.4118 16.5658 45.3347C16.7329 45.2576 16.9021 45.1312 17.0735 44.9556C17.2448 44.7799 17.3948 44.5486 17.5233 44.2616C17.6518 43.9746 17.716 43.6126 17.716 43.1756C17.716 42.396 17.4633 41.7877 16.9578 41.3507C16.4523 40.9138 15.6941 40.6953 14.6831 40.6953H10.3008V49.8712H11.9072ZM14.5297 44.8728H11.8951V42.0069H14.504C14.7096 42.0069 14.9088 42.024 15.1016 42.0583C15.2943 42.0926 15.4657 42.1611 15.6156 42.2639C15.7655 42.3667 15.8834 42.5103 15.969 42.6945C16.0547 42.8787 16.0975 43.1164 16.0975 43.4077C16.0975 43.8961 15.9647 44.2623 15.6992 44.5065C15.4336 44.7507 15.0437 44.8728 14.5297 44.8728ZM23.1072 49.9031C22.7774 50.0016 22.4325 50.0509 22.0727 50.0509C21.5501 50.0509 21.0874 49.9652 20.6847 49.7939C20.2821 49.6225 19.9415 49.3826 19.6631 49.0742C19.3846 48.7658 19.1747 48.3973 19.0333 47.969C18.892 47.5406 18.8213 47.0694 18.8213 46.5553C18.8213 46.0841 18.8963 45.6364 19.0462 45.2123C19.1961 44.7882 19.4103 44.4156 19.6888 44.0943C19.9672 43.773 20.3035 43.5181 20.6976 43.3296C21.0917 43.1411 21.5372 43.0469 22.0341 43.0469C22.5568 43.0469 23.0258 43.1561 23.4414 43.3746C23.8569 43.5931 24.2017 43.8822 24.4759 44.2421C24.7501 44.6019 24.9493 45.0153 25.0735 45.4822C25.1977 45.9492 25.2299 46.4311 25.1699 46.928H20.2863C20.2863 47.185 20.3228 47.4335 20.3956 47.6734C20.4684 47.9133 20.5776 48.1232 20.7233 48.3031C20.8689 48.483 21.0531 48.6265 21.2759 48.7336C21.4987 48.8407 21.7643 48.8943 22.0727 48.8943C22.5011 48.8943 22.8459 48.8022 23.1072 48.618C23.3685 48.4338 23.5635 48.1575 23.692 47.789H25.0799C25.0028 48.1489 24.87 48.4702 24.6815 48.7529C24.493 49.0356 24.266 49.2734 24.0004 49.4662C23.7348 49.6589 23.4371 49.8046 23.1072 49.9031ZM23.7036 45.9641H20.2852C20.2937 45.7157 20.343 45.4844 20.4329 45.2702C20.5229 45.056 20.6429 44.8696 20.7928 44.7111C20.9427 44.5526 21.1226 44.4284 21.3325 44.3384C21.5425 44.2485 21.7759 44.2035 22.0329 44.2035C22.2814 44.2035 22.5063 44.2528 22.7076 44.3513C22.909 44.4498 23.0803 44.5783 23.2217 44.7368C23.3631 44.8953 23.4744 45.0817 23.5558 45.2959C23.6372 45.5101 23.6865 45.7328 23.7036 45.9641ZM29.9136 49.9352C29.5624 50.0123 29.2154 50.0509 28.8727 50.0509C28.4528 50.0509 28.0652 50.0038 27.7096 49.9095C27.3541 49.8153 27.0456 49.6718 26.7843 49.479C26.523 49.2862 26.3174 49.0463 26.1674 48.7593C26.0175 48.4723 25.9383 48.1317 25.9297 47.7376H27.3947C27.4376 48.166 27.6004 48.4659 27.8831 48.6372C28.1658 48.8086 28.5043 48.8943 28.8984 48.8943C29.0354 48.8943 29.1918 48.8836 29.3674 48.8621C29.5431 48.8407 29.708 48.8 29.8622 48.74C30.0164 48.6801 30.1428 48.5923 30.2413 48.4766C30.3399 48.3609 30.3848 48.2089 30.3763 48.0204C30.3677 47.8319 30.2992 47.6777 30.1707 47.5577C30.0421 47.4378 29.8772 47.3414 29.6759 47.2686C29.4745 47.1957 29.2453 47.1336 28.9883 47.0822C28.7313 47.0308 28.47 46.9751 28.2044 46.9152C27.9302 46.8552 27.6668 46.7824 27.414 46.6967C27.1613 46.611 26.9342 46.4953 26.7329 46.3497C26.5316 46.204 26.3709 46.0177 26.251 45.7907C26.131 45.5636 26.0711 45.283 26.0711 44.9489C26.0711 44.589 26.1589 44.287 26.3345 44.0429C26.5101 43.7987 26.7329 43.6016 27.0028 43.4517C27.2727 43.3018 27.5725 43.1968 27.9024 43.1368C28.2322 43.0769 28.5471 43.0469 28.847 43.0469C29.1897 43.0469 29.5174 43.0833 29.8301 43.1561C30.1428 43.2289 30.4255 43.3467 30.6783 43.5095C30.931 43.6723 31.1409 43.8844 31.308 44.1457C31.4751 44.407 31.58 44.7218 31.6229 45.0903H30.0935C30.025 44.739 29.8644 44.5034 29.6116 44.3834C29.3589 44.2635 29.0697 44.2035 28.7441 44.2035C28.6413 44.2035 28.5192 44.2121 28.3779 44.2292C28.2365 44.2463 28.1037 44.2785 27.9795 44.3256C27.8553 44.3727 27.7503 44.4413 27.6646 44.5312C27.579 44.6212 27.5361 44.739 27.5361 44.8846C27.5361 45.0645 27.5982 45.2102 27.7225 45.3216C27.8467 45.433 28.0095 45.5251 28.2108 45.5979C28.4122 45.6707 28.6413 45.7328 28.8984 45.7842C29.1554 45.8356 29.421 45.8913 29.6952 45.9513C29.9607 46.0113 30.2221 46.0841 30.4791 46.1698C30.7361 46.2554 30.9653 46.3711 31.1666 46.5168C31.368 46.6624 31.5308 46.8466 31.655 47.0694C31.7792 47.2921 31.8413 47.5663 31.8413 47.8919C31.8413 48.286 31.7514 48.6201 31.5715 48.8943C31.3915 49.1684 31.1581 49.3912 30.8711 49.5625C30.584 49.7339 30.2649 49.8581 29.9136 49.9352ZM34.4582 43.2266V49.8707H32.9932V43.2266H34.4582ZM38.8319 50.0511C39.2518 50.0511 39.6502 49.9676 40.0271 49.8005C40.4041 49.6335 40.6911 49.3572 40.8882 48.9716H40.9139V49.8712H42.3018V40.6953H40.8368V44.0881H40.8111C40.6997 43.9082 40.5605 43.7518 40.3934 43.619C40.2263 43.4862 40.0443 43.377 39.8472 43.2913C39.6502 43.2056 39.4445 43.1435 39.2303 43.1049C39.0161 43.0664 38.8062 43.0471 38.6006 43.0471C38.2408 43.0471 37.8874 43.1135 37.5404 43.2463C37.1934 43.3791 36.885 43.5869 36.6151 43.8696C36.3452 44.1523 36.1289 44.5122 35.9661 44.9491C35.8033 45.3861 35.7219 45.9044 35.7219 46.5041C35.7219 47.0011 35.7862 47.4659 35.9147 47.8985C36.0432 48.3312 36.236 48.706 36.493 49.023C36.75 49.34 37.0734 49.5906 37.4633 49.7748C37.8531 49.959 38.3093 50.0511 38.8319 50.0511ZM38.2027 48.7015C38.434 48.83 38.7082 48.8943 39.0252 48.8943C39.3508 48.8943 39.6314 48.8257 39.867 48.6886C40.1026 48.5516 40.2954 48.3716 40.4453 48.1489C40.5952 47.9261 40.7066 47.6755 40.7794 47.3971C40.8522 47.1186 40.8887 46.8338 40.8887 46.5425C40.8887 45.8056 40.7237 45.2316 40.3939 44.8204C40.064 44.4091 39.6164 44.2035 39.0509 44.2035C38.7082 44.2035 38.419 44.2742 38.1834 44.4155C37.9478 44.5569 37.7551 44.7411 37.6051 44.9682C37.4552 45.1952 37.3481 45.4522 37.2838 45.7392C37.2196 46.0263 37.1875 46.3197 37.1875 46.6196C37.1875 46.9023 37.2239 47.1807 37.2967 47.4549C37.3695 47.7291 37.4809 47.9732 37.6308 48.1874C37.7808 48.4016 37.9714 48.573 38.2027 48.7015ZM46.8334 50.0509C47.1933 50.0509 47.5381 50.0016 47.868 49.9031C48.1978 49.8046 48.4955 49.6589 48.7611 49.4662C49.0267 49.2734 49.2538 49.0356 49.4423 48.7529C49.6308 48.4702 49.7636 48.1489 49.8407 47.789H48.4527C48.3242 48.1575 48.1293 48.4338 47.868 48.618C47.6067 48.8022 47.2618 48.8943 46.8334 48.8943C46.525 48.8943 46.2594 48.8407 46.0366 48.7336C45.8139 48.6265 45.6297 48.483 45.484 48.3031C45.3384 48.1232 45.2292 47.9133 45.1563 47.6734C45.0835 47.4335 45.0471 47.185 45.0471 46.928H49.9306C49.9906 46.4311 49.9585 45.9492 49.8342 45.4822C49.71 45.0153 49.5108 44.6019 49.2366 44.2421C48.9625 43.8822 48.6176 43.5931 48.2021 43.3746C47.7866 43.1561 47.3175 43.0469 46.7949 43.0469C46.298 43.0469 45.8524 43.1411 45.4583 43.3296C45.0642 43.5181 44.7279 43.773 44.4495 44.0943C44.1711 44.4156 43.9569 44.7882 43.8069 45.2123C43.657 45.6364 43.582 46.0841 43.582 46.5553C43.582 47.0694 43.6527 47.5406 43.7941 47.969C43.9354 48.3973 44.1454 48.7658 44.4238 49.0742C44.7022 49.3826 45.0428 49.6225 45.4455 49.7939C45.8482 49.9652 46.3108 50.0509 46.8334 50.0509ZM45.0462 45.9641H48.4646C48.4475 45.7328 48.3982 45.5101 48.3168 45.2959C48.2354 45.0817 48.1241 44.8953 47.9827 44.7368C47.8413 44.5783 47.67 44.4498 47.4686 44.3513C47.2673 44.2528 47.0424 44.2035 46.7939 44.2035C46.5369 44.2035 46.3035 44.2485 46.0935 44.3384C45.8836 44.4284 45.7037 44.5526 45.5538 44.7111C45.4039 44.8696 45.2839 45.056 45.1939 45.2702C45.104 45.4844 45.0547 45.7157 45.0462 45.9641ZM52.5002 49.871V45.9513C52.5002 45.7114 52.5388 45.4844 52.6159 45.2702C52.693 45.056 52.8001 44.8696 52.9372 44.7111C53.0742 44.5526 53.2413 44.4284 53.4384 44.3384C53.6354 44.2485 53.8582 44.2035 54.1066 44.2035C54.5436 44.2035 54.8649 44.3213 55.0705 44.5569C55.2761 44.7925 55.3875 45.1716 55.4046 45.6943V49.871H56.8697V45.3087C56.8697 44.5548 56.6598 43.9893 56.24 43.6123C55.8202 43.2354 55.2461 43.0469 54.5179 43.0469C54.0809 43.0469 53.6825 43.1518 53.3227 43.3617C52.9629 43.5716 52.6716 43.8608 52.4488 44.2292L52.4231 44.2035V43.2268H51.0352V49.871H52.5002ZM61.172 49.9097C61.0178 49.9268 60.8593 49.9354 60.6965 49.9354C60.3109 49.9354 60.0004 49.8989 59.7647 49.8261C59.5291 49.7533 59.3449 49.6462 59.2121 49.5048C59.0793 49.3635 58.9894 49.1857 58.9423 48.9715C58.8951 48.7573 58.8673 48.5131 58.8587 48.239V44.3193H57.7535V43.2269H58.8587V41.235H60.3238V43.2269H61.6475V44.3193H60.3238V47.8663C60.3238 48.0205 60.3302 48.1533 60.3431 48.2647C60.3559 48.3761 60.3859 48.4703 60.433 48.5474C60.4801 48.6245 60.5508 48.6823 60.6451 48.7209C60.7393 48.7595 60.8678 48.7787 61.0306 48.7787C61.1334 48.7787 61.2362 48.7766 61.339 48.7723C61.4419 48.768 61.5447 48.753 61.6475 48.7273V49.8583C61.4847 49.8754 61.3262 49.8925 61.172 49.9097Z" fill="#E6E7EA"/>
<path fill-rule="evenodd" clip-rule="evenodd" d="M24.1732 35.1469C22.8656 35.5474 21.3518 35.7477 19.6319 35.7477C18.2418 35.7477 16.8929 35.5768 15.5853 35.2352C14.2776 34.8936 13.1232 34.3576 12.1218 33.6272C11.1205 32.8968 10.3253 31.9661 9.73627 30.8352C9.14725 29.7043 8.86452 28.3613 8.88808 26.8063H14.26C14.26 27.6545 14.4131 28.3731 14.7194 28.9621C15.0257 29.5511 15.4321 30.0282 15.9387 30.3934C16.4452 30.7586 17.0402 31.0296 17.7234 31.2063C18.4067 31.383 19.1135 31.4714 19.8439 31.4714C20.3387 31.4714 20.8688 31.4301 21.4343 31.3477C21.9997 31.2652 22.5298 31.1062 23.0246 30.8706C23.5194 30.6349 23.9317 30.311 24.2616 29.8987C24.5914 29.4863 24.7564 28.9621 24.7564 28.326C24.7564 27.6427 24.5384 27.089 24.1025 26.6649C23.6667 26.2408 23.0953 25.8874 22.3885 25.6047C21.6817 25.322 20.8806 25.0746 19.9853 24.8625C19.09 24.6505 18.1829 24.4149 17.264 24.1557C16.3215 23.9201 15.4027 23.6315 14.5074 23.2898C13.612 22.9482 12.811 22.5064 12.1041 21.9645C11.3973 21.4226 10.826 20.7452 10.3901 19.9324C9.95421 19.1195 9.73627 18.1359 9.73627 16.9814C9.73627 15.6855 10.0131 14.5605 10.5668 13.6063C11.1205 12.6521 11.845 11.8569 12.7403 11.2207C13.6356 10.5846 14.6487 10.1134 15.7796 9.80709C16.9106 9.5008 18.0415 9.34766 19.1724 9.34766C20.4918 9.34766 21.7582 9.49491 22.9716 9.78942C24.185 10.0839 25.2629 10.561 26.2053 11.2207C27.0062 11.7814 27.6668 12.4739 28.1869 13.2982V9.94832H33.2054V23.4841L39.5315 16.9106H45.4688L38.5773 23.6254L46.2463 35.1821H40.1676L35.1491 27.0182L33.2054 28.8913V35.1821H28.1869V32.7948C27.9637 33.0311 27.7214 33.2555 27.46 33.4681C26.5764 34.1867 25.4809 34.7463 24.1732 35.1469ZM28.1869 22.9297C27.8461 22.5904 27.4801 22.2923 27.0889 22.0352C26.2643 21.4933 25.4337 21.0987 24.5973 20.8513C23.7609 20.6039 23.1071 20.4331 22.6359 20.3388C21.0573 19.9383 19.7791 19.6084 18.8013 19.3493C17.8236 19.0901 17.0578 18.8309 16.5041 18.5718C15.9505 18.3126 15.5794 18.0299 15.3909 17.7236C15.2024 17.4173 15.1082 17.0167 15.1082 16.522C15.1082 15.9801 15.226 15.5324 15.4616 15.179C15.6972 14.8256 15.9976 14.5311 16.3628 14.2954C16.728 14.0598 17.1344 13.8949 17.5821 13.8007C18.0297 13.7064 18.4774 13.6593 18.925 13.6593C19.6083 13.6593 20.2385 13.7182 20.8158 13.836C21.393 13.9538 21.9055 14.1541 22.3531 14.4368C22.8008 14.7195 23.1601 15.1083 23.4311 15.6031C23.702 16.0979 23.861 16.7222 23.9082 17.4762H28.1869V22.9297Z" fill="#E6E7EA"/>
</svg>
