<svg width="482" height="433" viewBox="0 0 482 433" fill="none" xmlns="http://www.w3.org/2000/svg">
<path d="M257.851 431.5L225 431.5" stroke="#0F0E12" stroke-width="1.5"/>
<path d="M241.5 411V431" stroke="#0F0E12" stroke-width="1.5"/>
<rect x="1" y="121" width="480" height="290" stroke="#0F0E12" stroke-width="1.5"/>
<circle cx="93" cy="361" r="7" fill="#FF7740"/>
<path d="M1.37037 331.5H481" stroke="#0F0E12" stroke-width="1.5"/>
<circle cx="322" cy="365.548" r="31.5" transform="rotate(45 322 365.548)" fill="#69C7DC"/>
<circle cx="322" cy="365.548" r="31.5" transform="rotate(45 322 365.548)" fill="url(#paint0_radial)" fill-opacity="0.8"/>
<circle cx="322" cy="365.548" r="31.5" transform="rotate(45 322 365.548)" fill="url(#paint1_radial)"/>
<circle cx="322" cy="365.548" r="31.5" transform="rotate(45 322 365.548)" fill="url(#paint2_radial)"/>
<circle cx="411.5" cy="312.5" r="17.5" fill="#FF7740"/>
<circle cx="186" cy="306.154" r="39" transform="rotate(45 186 306.154)" fill="#E9BC93"/>
<circle cx="186" cy="306.154" r="39" transform="rotate(45 186 306.154)" fill="url(#paint3_radial)" fill-opacity="0.7"/>
<circle cx="186" cy="306.154" r="39" transform="rotate(45 186 306.154)" fill="url(#paint4_radial)"/>
<circle cx="186" cy="306.154" r="39" transform="rotate(45 186 306.154)" fill="url(#paint5_radial)"/>
<circle r="8" transform="matrix(0.707107 0.707107 0.707107 -0.707107 104.314 250)" fill="#E8A4B4"/>
<circle r="8" transform="matrix(0.707107 0.707107 0.707107 -0.707107 104.314 250)" fill="url(#paint6_radial)" fill-opacity="0.9"/>
<circle r="8" transform="matrix(0.707107 0.707107 0.707107 -0.707107 104.314 250)" fill="url(#paint7_radial)"/>
<circle r="8" transform="matrix(0.707107 0.707107 0.707107 -0.707107 104.314 250)" fill="url(#paint8_radial)"/>
<circle r="15" transform="matrix(0.707107 0.707107 0.707107 -0.707107 342.213 229)" fill="#E8A4B4"/>
<circle r="15" transform="matrix(0.707107 0.707107 0.707107 -0.707107 342.213 229)" fill="url(#paint9_radial)" fill-opacity="0.9"/>
<circle r="15" transform="matrix(0.707107 0.707107 0.707107 -0.707107 342.213 229)" fill="url(#paint10_radial)"/>
<circle r="15" transform="matrix(0.707107 0.707107 0.707107 -0.707107 342.213 229)" fill="url(#paint11_radial)"/>
<ellipse cx="438" cy="207.021" rx="8.5" ry="8.5" transform="rotate(45 438 207.021)" fill="#69C7DC"/>
<ellipse cx="438" cy="207.021" rx="8.5" ry="8.5" transform="rotate(45 438 207.021)" fill="url(#paint12_radial)" fill-opacity="0.8"/>
<ellipse cx="438" cy="207.021" rx="8.5" ry="8.5" transform="rotate(45 438 207.021)" fill="url(#paint13_radial)"/>
<ellipse cx="438" cy="207.021" rx="8.5" ry="8.5" transform="rotate(45 438 207.021)" fill="url(#paint14_radial)"/>
<circle cx="205" cy="196.556" r="11" transform="rotate(45 205 196.556)" fill="#E9BC93"/>
<circle cx="205" cy="196.556" r="11" transform="rotate(45 205 196.556)" fill="url(#paint15_radial)" fill-opacity="0.7"/>
<circle cx="205" cy="196.556" r="11" transform="rotate(45 205 196.556)" fill="url(#paint16_radial)"/>
<circle cx="205" cy="196.556" r="11" transform="rotate(45 205 196.556)" fill="url(#paint17_radial)"/>
<circle cx="277" cy="156.607" r="7.5" transform="rotate(45 277 156.607)" fill="#E9BC93"/>
<circle cx="277" cy="156.607" r="7.5" transform="rotate(45 277 156.607)" fill="url(#paint18_radial)" fill-opacity="0.7"/>
<circle cx="277" cy="156.607" r="7.5" transform="rotate(45 277 156.607)" fill="url(#paint19_radial)"/>
<circle cx="277" cy="156.607" r="7.5" transform="rotate(45 277 156.607)" fill="url(#paint20_radial)"/>
<circle r="39" transform="matrix(0.707107 0.707107 0.707107 -0.707107 64.1543 170)" fill="#E8A4B4"/>
<circle r="39" transform="matrix(0.707107 0.707107 0.707107 -0.707107 64.1543 170)" fill="url(#paint21_radial)" fill-opacity="0.9"/>
<circle r="39" transform="matrix(0.707107 0.707107 0.707107 -0.707107 64.1543 170)" fill="url(#paint22_radial)"/>
<circle r="39" transform="matrix(0.707107 0.707107 0.707107 -0.707107 64.1543 170)" fill="url(#paint23_radial)"/>
<circle cx="185.5" cy="83.5" r="17.5" fill="#FF7740"/>
<circle cx="364" cy="101.154" r="39" transform="rotate(45 364 101.154)" fill="#69C7DC"/>
<circle cx="364" cy="101.154" r="39" transform="rotate(45 364 101.154)" fill="url(#paint24_radial)" fill-opacity="0.8"/>
<circle cx="364" cy="101.154" r="39" transform="rotate(45 364 101.154)" fill="url(#paint25_radial)"/>
<circle cx="364" cy="101.154" r="39" transform="rotate(45 364 101.154)" fill="url(#paint26_radial)"/>
<path d="M241.5 1.54054V121" stroke="#0F0E12" stroke-width="1.5"/>
<path d="M257.851 1.5L225 1.5" stroke="#0F0E12" stroke-width="1.5"/>
<defs>
<radialGradient id="paint0_radial" cx="0" cy="0" r="1" gradientUnits="userSpaceOnUse" gradientTransform="translate(299.5 365.548) scale(43.875 49.6742)">
<stop stop-color="white"/>
<stop offset="1" stop-color="white" stop-opacity="0"/>
</radialGradient>
<radialGradient id="paint1_radial" cx="0" cy="0" r="1" gradientUnits="userSpaceOnUse" gradientTransform="translate(297.25 365.548) scale(56.25)">
<stop offset="0.681973" stop-color="#0F0E12" stop-opacity="0"/>
<stop offset="1" stop-color="#0F0E12" stop-opacity="0.19"/>
</radialGradient>
<radialGradient id="paint2_radial" cx="0" cy="0" r="1" gradientUnits="userSpaceOnUse" gradientTransform="translate(306.25 365.548) scale(159.75)">
<stop stop-color="#0F0E12" stop-opacity="0"/>
<stop offset="1" stop-color="#0F0E12"/>
</radialGradient>
<radialGradient id="paint3_radial" cx="0" cy="0" r="1" gradientUnits="userSpaceOnUse" gradientTransform="translate(158.143 306.154) scale(54.3214 61.5015)">
<stop stop-color="white"/>
<stop offset="1" stop-color="white" stop-opacity="0"/>
</radialGradient>
<radialGradient id="paint4_radial" cx="0" cy="0" r="1" gradientUnits="userSpaceOnUse" gradientTransform="translate(146.094 335.228) rotate(-30) scale(125.357)">
<stop offset="0.474308" stop-color="#0F0E12" stop-opacity="0"/>
<stop offset="1" stop-color="#0F0E12" stop-opacity="0.19"/>
</radialGradient>
<radialGradient id="paint5_radial" cx="0" cy="0" r="1" gradientUnits="userSpaceOnUse" gradientTransform="translate(146.652 306.154) scale(254.893)">
<stop offset="0.168279" stop-color="#0F0E12" stop-opacity="0"/>
<stop offset="1" stop-color="#0F0E12"/>
</radialGradient>
<radialGradient id="paint6_radial" cx="0" cy="0" r="1" gradientUnits="userSpaceOnUse" gradientTransform="translate(2.28571 8) scale(11.1429 12.6157)">
<stop stop-color="white" stop-opacity="0.9"/>
<stop offset="1" stop-color="white" stop-opacity="0"/>
</radialGradient>
<radialGradient id="paint7_radial" cx="0" cy="0" r="1" gradientUnits="userSpaceOnUse" gradientTransform="translate(1.71429 8) scale(14.2857)">
<stop offset="0.681973" stop-color="#0F0E12" stop-opacity="0"/>
<stop offset="1" stop-color="#0F0E12" stop-opacity="0.19"/>
</radialGradient>
<radialGradient id="paint8_radial" cx="0" cy="0" r="1" gradientUnits="userSpaceOnUse" gradientTransform="translate(4 8) scale(40.5714)">
<stop offset="0.0928251" stop-color="#0F0E12" stop-opacity="0"/>
<stop offset="1" stop-color="#0F0E12"/>
</radialGradient>
<radialGradient id="paint9_radial" cx="0" cy="0" r="1" gradientUnits="userSpaceOnUse" gradientTransform="translate(4.28571 15) scale(20.8929 23.6544)">
<stop stop-color="white" stop-opacity="0.9"/>
<stop offset="1" stop-color="white" stop-opacity="0"/>
</radialGradient>
<radialGradient id="paint10_radial" cx="0" cy="0" r="1" gradientUnits="userSpaceOnUse" gradientTransform="translate(3.21428 15) scale(26.7857)">
<stop offset="0.681973" stop-color="#0F0E12" stop-opacity="0"/>
<stop offset="1" stop-color="#0F0E12" stop-opacity="0.19"/>
</radialGradient>
<radialGradient id="paint11_radial" cx="0" cy="0" r="1" gradientUnits="userSpaceOnUse" gradientTransform="translate(7.5 15) scale(76.0714)">
<stop offset="0.0928251" stop-color="#0F0E12" stop-opacity="0"/>
<stop offset="1" stop-color="#0F0E12"/>
</radialGradient>
<radialGradient id="paint12_radial" cx="0" cy="0" r="1" gradientUnits="userSpaceOnUse" gradientTransform="translate(431.929 207.021) scale(11.8393 13.4042)">
<stop stop-color="white"/>
<stop offset="1" stop-color="white" stop-opacity="0"/>
</radialGradient>
<radialGradient id="paint13_radial" cx="0" cy="0" r="1" gradientUnits="userSpaceOnUse" gradientTransform="translate(431.321 207.021) scale(15.1786)">
<stop offset="0.681973" stop-color="#0F0E12" stop-opacity="0"/>
<stop offset="1" stop-color="#0F0E12" stop-opacity="0.19"/>
</radialGradient>
<radialGradient id="paint14_radial" cx="0" cy="0" r="1" gradientUnits="userSpaceOnUse" gradientTransform="translate(433.75 207.021) scale(43.1071)">
<stop stop-color="#0F0E12" stop-opacity="0"/>
<stop offset="1" stop-color="#0F0E12"/>
</radialGradient>
<radialGradient id="paint15_radial" cx="0" cy="0" r="1" gradientUnits="userSpaceOnUse" gradientTransform="translate(197.143 196.556) scale(15.3214 17.3466)">
<stop stop-color="white"/>
<stop offset="1" stop-color="white" stop-opacity="0"/>
</radialGradient>
<radialGradient id="paint16_radial" cx="0" cy="0" r="1" gradientUnits="userSpaceOnUse" gradientTransform="translate(193.744 204.757) rotate(-30) scale(35.3571)">
<stop offset="0.474308" stop-color="#0F0E12" stop-opacity="0"/>
<stop offset="1" stop-color="#0F0E12" stop-opacity="0.19"/>
</radialGradient>
<radialGradient id="paint17_radial" cx="0" cy="0" r="1" gradientUnits="userSpaceOnUse" gradientTransform="translate(193.902 196.556) scale(71.8929)">
<stop offset="0.168279" stop-color="#0F0E12" stop-opacity="0"/>
<stop offset="1" stop-color="#0F0E12"/>
</radialGradient>
<radialGradient id="paint18_radial" cx="0" cy="0" r="1" gradientUnits="userSpaceOnUse" gradientTransform="translate(271.643 156.607) scale(10.4464 11.8272)">
<stop stop-color="white"/>
<stop offset="1" stop-color="white" stop-opacity="0"/>
</radialGradient>
<radialGradient id="paint19_radial" cx="0" cy="0" r="1" gradientUnits="userSpaceOnUse" gradientTransform="translate(269.326 162.198) rotate(-30) scale(24.1071)">
<stop offset="0.474308" stop-color="#0F0E12" stop-opacity="0"/>
<stop offset="1" stop-color="#0F0E12" stop-opacity="0.19"/>
</radialGradient>
<radialGradient id="paint20_radial" cx="0" cy="0" r="1" gradientUnits="userSpaceOnUse" gradientTransform="translate(269.433 156.607) scale(49.0179)">
<stop offset="0.168279" stop-color="#0F0E12" stop-opacity="0"/>
<stop offset="1" stop-color="#0F0E12"/>
</radialGradient>
<radialGradient id="paint21_radial" cx="0" cy="0" r="1" gradientUnits="userSpaceOnUse" gradientTransform="translate(11.1429 39) scale(54.3214 61.5014)">
<stop stop-color="white" stop-opacity="0.9"/>
<stop offset="1" stop-color="white" stop-opacity="0"/>
</radialGradient>
<radialGradient id="paint22_radial" cx="0" cy="0" r="1" gradientUnits="userSpaceOnUse" gradientTransform="translate(8.35714 39) scale(69.6429)">
<stop offset="0.681973" stop-color="#0F0E12" stop-opacity="0"/>
<stop offset="1" stop-color="#0F0E12" stop-opacity="0.19"/>
</radialGradient>
<radialGradient id="paint23_radial" cx="0" cy="0" r="1" gradientUnits="userSpaceOnUse" gradientTransform="translate(19.5 39) scale(197.786)">
<stop offset="0.0928251" stop-color="#0F0E12" stop-opacity="0"/>
<stop offset="1" stop-color="#0F0E12"/>
</radialGradient>
<radialGradient id="paint24_radial" cx="0" cy="0" r="1" gradientUnits="userSpaceOnUse" gradientTransform="translate(336.143 101.154) scale(54.3214 61.5015)">
<stop stop-color="white"/>
<stop offset="1" stop-color="white" stop-opacity="0"/>
</radialGradient>
<radialGradient id="paint25_radial" cx="0" cy="0" r="1" gradientUnits="userSpaceOnUse" gradientTransform="translate(333.357 101.154) scale(69.6429)">
<stop offset="0.681973" stop-color="#0F0E12" stop-opacity="0"/>
<stop offset="1" stop-color="#0F0E12" stop-opacity="0.19"/>
</radialGradient>
<radialGradient id="paint26_radial" cx="0" cy="0" r="1" gradientUnits="userSpaceOnUse" gradientTransform="translate(344.5 101.154) scale(197.786)">
<stop stop-color="#0F0E12" stop-opacity="0"/>
<stop offset="1" stop-color="#0F0E12"/>
</radialGradient>
</defs>
</svg>
