<svg width="199" height="221" viewBox="0 0 199 221" fill="none" xmlns="http://www.w3.org/2000/svg">
<path d="M23.5 216L16.5 219L13 209V214H8V201L11.5 186.5L2 195L4 182.5L16.5 174.5L23.5 169L39.5 155L58 151L68.5 153.5H77.5V147.5L90 137L105 129L122 112L125.5 93.5V76L132 65.5H141.5V76L148.5 85V102L141.5 112L137.5 117L139.5 127.5L137.5 142.5V151H132V158L125.5 161L127 158V155L122 156.5L115.5 161H112L105 169H93.5V166L87 161L85 169L90 171.5L81.5 176L80 180.5L72.5 186.5L68.5 174.5L72.5 166H68.5L62.5 176V180.5L56.5 186.5L48.5 182.5L39.5 195L34 184.5L39.5 176H50.5L53 171.5H60.5L66 166L50.5 169L34 176H19.5L21 182.5H27L21 186.5H27L30.5 192L25.5 211.5H21L23.5 216Z" stroke="black" stroke-width="1.5"/>
<path d="M99.0956 156.261L98.9326 126.245" stroke="#7B47B5" stroke-width="1.5"/>
<circle cx="99.2636" cy="116.827" r="10.5" transform="rotate(127.933 99.2636 116.827)" fill="#722DC1"/>
<circle cx="99.2636" cy="116.827" r="10.5" transform="rotate(127.933 99.2636 116.827)" fill="url(#paint0_radial)" fill-opacity="0.7"/>
<circle cx="99.2636" cy="116.827" r="10.5" transform="rotate(127.933 99.2636 116.827)" fill="url(#paint1_radial)"/>
<circle cx="99.2636" cy="116.827" r="10.5" transform="rotate(127.933 99.2636 116.827)" fill="url(#paint2_radial)"/>
<path d="M134 58.5L127.5 65.5L124 58.5L127.5 56L124 52V46L136 36.5H143L148.5 27.5V13L145.5 3L153 1L167 16L182.5 24L188.5 16H191.5L188.5 25.5L197.5 33.5L184.5 40L171 46L167 56L147 43.5L138.5 47.5L132.5 46L134 53.5L140.5 58.5H134Z" stroke="black" stroke-width="1.5"/>
<defs>
<radialGradient id="paint0_radial" cx="0" cy="0" r="1" gradientUnits="userSpaceOnUse" gradientTransform="translate(91.7636 116.827) scale(14.625 16.5581)">
<stop stop-color="white"/>
<stop offset="1" stop-color="white" stop-opacity="0"/>
</radialGradient>
<radialGradient id="paint1_radial" cx="0" cy="0" r="1" gradientUnits="userSpaceOnUse" gradientTransform="translate(89.2397 121.349) rotate(-25.6305) scale(21.5093 21.4986)">
<stop offset="0.474308" stop-color="#0F0E12" stop-opacity="0"/>
<stop offset="1" stop-color="#0F0E12" stop-opacity="0.19"/>
</radialGradient>
<radialGradient id="paint2_radial" cx="0" cy="0" r="1" gradientUnits="userSpaceOnUse" gradientTransform="translate(88.6698 116.827) scale(68.625)">
<stop offset="0.168279" stop-color="#0F0E12" stop-opacity="0"/>
<stop offset="1" stop-color="#0F0E12"/>
</radialGradient>
</defs>
</svg>
